<?xml version="1.0" encoding="UTF-8" standalone="no"?>
<!-- Created with Inkscape (http://www.inkscape.org/) -->

<svg
   xmlns:dc="http://purl.org/dc/elements/1.1/"
   xmlns:cc="http://creativecommons.org/ns#"
   xmlns:rdf="http://www.w3.org/1999/02/22-rdf-syntax-ns#"
   xmlns:svg="http://www.w3.org/2000/svg"
   xmlns="http://www.w3.org/2000/svg"
   xmlns:sodipodi="http://sodipodi.sourceforge.net/DTD/sodipodi-0.dtd"
   xmlns:inkscape="http://www.inkscape.org/namespaces/inkscape"
   width="62.772221mm"
   height="36.296551mm"
   viewBox="0 0 62.772221 36.296551"
   version="1.1"
   id="svg11794"
   inkscape:version="0.92.3 (2405546, 2018-03-11)"
   sodipodi:docname="channel-perf.svg">
  <defs
     id="defs11788" />
  <sodipodi:namedview
     id="base"
     pagecolor="#ffffff"
     bordercolor="#666666"
     borderopacity="1.0"
     inkscape:pageopacity="0.0"
     inkscape:pageshadow="2"
     inkscape:zoom="0.35"
     inkscape:cx="595.76752"
     inkscape:cy="-388.55095"
     inkscape:document-units="mm"
     inkscape:current-layer="layer1"
     showgrid="false"
     fit-margin-top="0"
     fit-margin-left="0"
     fit-margin-right="0"
     fit-margin-bottom="0"
     inkscape:window-width="1296"
     inkscape:window-height="704"
     inkscape:window-x="70"
     inkscape:window-y="27"
     inkscape:window-maximized="1" />
  <metadata
     id="metadata11791">
    <rdf:RDF>
      <cc:Work
         rdf:about="">
        <dc:format>image/svg+xml</dc:format>
        <dc:type
           rdf:resource="http://purl.org/dc/dcmitype/StillImage" />
        <dc:title></dc:title>
      </cc:Work>
    </rdf:RDF>
  </metadata>
  <g
     inkscape:label="Layer 1"
     inkscape:groupmode="layer"
     id="layer1"
     transform="translate(51.796824,-9.7326774)">
    <path
       d="m 10.934471,24.198987 v 21.83024 h -62.731295 v -21.83024 z"
       style="fill:#33cc33;fill-opacity:1;fill-rule:nonzero;stroke:none;stroke-width:0.35277775"
       id="path558"
       inkscape:connector-curvature="0" />
    <path
       d="m 10.975395,24.536242 -0.112538,9.903531 -16.3216138,-0.102306 c -3.781425,-0.357717 -4.9769902,-1.08338 -6.3567052,-2.054225 -1.369483,-0.970844 -1.430867,-2.483555 -1.798812,-3.781425 -0.347488,-1.624894 -0.39864,-3.168297 -0.521406,-4.006497"
       style="fill:#99ff99;fill-opacity:1;fill-rule:evenodd;stroke:none;stroke-width:0.35277775"
       id="path560"
       inkscape:connector-curvature="0" />
    <path
       d="m -21.218047,24.474859 0.04092,-9.494308"
       style="fill:none;stroke:#000000;stroke-width:0.17039166;stroke-linecap:butt;stroke-linejoin:round;stroke-miterlimit:10;stroke-dasharray:none;stroke-opacity:1"
       id="path562"
       inkscape:connector-curvature="0" />
    <path
       d="m -21.964172,14.551221 0.08184,-0.357717 0.19403,-0.265641 0.286102,-0.112537 h 0.276225 l 0.286102,0.112537 0.21449,0.265641 0.04092,0.357717 -0.04092,0.327025 -0.21449,0.265642 -0.286102,0.112536 H -21.4022 l -0.286102,-0.112536 -0.19403,-0.265642 -0.08184,-0.327025"
       style="fill:#000000;fill-opacity:1;fill-rule:evenodd;stroke:none;stroke-width:0.35277775"
       id="path564"
       inkscape:connector-curvature="0" />
    <path
       d="m -21.964172,14.551221 0.08184,-0.357717 0.19403,-0.265641 0.286102,-0.112537 h 0.276225 l 0.286102,0.112537 0.21449,0.265641 0.04092,0.357717 -0.04092,0.327025 -0.21449,0.265642 -0.286102,0.112536 H -21.4022 l -0.286102,-0.112536 -0.19403,-0.265642 z"
       style="fill:none;stroke:#000000;stroke-width:0.04268611;stroke-linecap:round;stroke-linejoin:round;stroke-miterlimit:10;stroke-dasharray:none;stroke-opacity:1"
       id="path566"
       inkscape:connector-curvature="0" />
    <path
       d="m -42.598849,27.009567 0.02046,-11.967632"
       style="fill:none;stroke:#000000;stroke-width:0.17039166;stroke-linecap:butt;stroke-linejoin:round;stroke-miterlimit:10;stroke-dasharray:none;stroke-opacity:1"
       id="path568"
       inkscape:connector-curvature="0" />
    <path
       d="m -43.324513,14.939629 0.07161,-0.337255 0.214842,-0.265642 0.23495,-0.18415 h 0.327025 l 0.275872,0.18415 0.17392,0.265642 0.09172,0.337255 -0.09172,0.296334 -0.17392,0.275872 -0.275872,0.153458 h -0.327025 l -0.23495,-0.153458 -0.214842,-0.275872 -0.07161,-0.296334"
       style="fill:#000000;fill-opacity:1;fill-rule:evenodd;stroke:none;stroke-width:0.35277775"
       id="path570"
       inkscape:connector-curvature="0" />
    <path
       d="m -43.324513,14.939629 0.07161,-0.337255 0.214842,-0.265642 0.23495,-0.18415 h 0.327025 l 0.275872,0.18415 0.17392,0.265642 0.09172,0.337255 -0.09172,0.296334 -0.17392,0.275872 -0.275872,0.153458 h -0.327025 l -0.23495,-0.153458 -0.214842,-0.275872 z"
       style="fill:none;stroke:#000000;stroke-width:0.04268611;stroke-linecap:round;stroke-linejoin:round;stroke-miterlimit:10;stroke-dasharray:none;stroke-opacity:1"
       id="path572"
       inkscape:connector-curvature="0" />
    <path
       d="M 2.2166282,27.142565 2.2473202,15.297346"
       style="fill:none;stroke:#000000;stroke-width:0.17039166;stroke-linecap:butt;stroke-linejoin:round;stroke-miterlimit:10;stroke-dasharray:none;stroke-opacity:1"
       id="path574"
       inkscape:connector-curvature="0" />
    <path
       d="m 1.5216552,14.939629 0.06138,-0.337255 0.214842,-0.265642 0.245181,-0.18415 h 0.316794 l 0.286102,0.18415 0.173921,0.265642 0.06138,0.337255 -0.06138,0.296334 -0.173921,0.275872 -0.286102,0.153458 h -0.316791 l -0.245181,-0.153458 -0.214842,-0.275872 -0.061383,-0.296334"
       style="fill:#000000;fill-opacity:1;fill-rule:evenodd;stroke:none;stroke-width:0.35277775"
       id="path576"
       inkscape:connector-curvature="0" />
    <path
       d="m 1.5216552,14.939629 0.06138,-0.337255 0.214842,-0.265642 0.245181,-0.18415 h 0.316794 l 0.286102,0.18415 0.173921,0.265642 0.06138,0.337255 -0.06138,0.296334 -0.173921,0.275872 -0.286102,0.153458 h -0.316791 l -0.245181,-0.153458 -0.214842,-0.275872 z"
       style="fill:none;stroke:#000000;stroke-width:0.04268611;stroke-linecap:round;stroke-linejoin:round;stroke-miterlimit:10;stroke-dasharray:none;stroke-opacity:1"
       id="path578"
       inkscape:connector-curvature="0" />
    <path
       d="m -6.3579888,19.518332 v 3.556705 H -34.248952 v -3.556705 z"
       style="fill:#ff3300;fill-opacity:1;fill-rule:nonzero;stroke:none;stroke-width:0.35277775"
       id="path580"
       inkscape:connector-curvature="0" />
    <text
       y="12.854678"
       x="-43.814911"
       style="font-variant:normal;font-weight:normal;font-size:3.06606221px;font-family:Arial;-inkscape-font-specification:Arial;writing-mode:lr-tb;fill:#000000;fill-opacity:1;fill-rule:nonzero;stroke:none;stroke-width:0.35277775"
       id="text584">
      <tspan
         style="stroke-width:0.35277775"
         x="-43.814911"
         y="12.854678"
         id="tspan582">D</tspan>
    </text>
    <path
       d="m -51.714979,24.209217 0.194027,13.132858 26.930348,-0.142875 c 6.23429,-0.480484 8.2169,-1.430866 10.485615,-2.728736 2.269067,-1.287991 2.361142,-3.291063 2.974269,-5.008033 0.572206,-2.1463 0.664281,-4.200525 0.858308,-5.304366"
       style="fill:#99ff99;fill-opacity:1;fill-rule:evenodd;stroke:none;stroke-width:0.35277775"
       id="path586"
       inkscape:connector-curvature="0" />
    <text
       y="11.873531"
       x="-22.648951"
       style="font-variant:normal;font-weight:normal;font-size:3.06606221px;font-family:Arial;-inkscape-font-specification:Arial;writing-mode:lr-tb;fill:#000000;fill-opacity:1;fill-rule:nonzero;stroke:none;stroke-width:0.35277775"
       id="text598">
      <tspan
         style="stroke-width:0.35277775"
         x="-22.648951"
         y="11.873531"
         id="tspan588">G</tspan>
      <tspan
         style="stroke-width:0.35277775"
         x="1.1335733"
         y="12.854671"
         id="tspan590">S</tspan>
      <tspan
         style="stroke-width:0.35277775"
         x="-47.831436"
         y="36.0341"
         id="tspan592">p</tspan>
      <tspan
         style="stroke-width:0.35277775"
         x="-2.5251601"
         y="17.872894"
         id="tspan594">-</tspan>
      <tspan
         style="stroke-width:0.35277775"
         x="-18.816065"
         y="15.317945"
         id="tspan596">+</tspan>
    </text>
    <path
       d="m -7.6763198,24.781776 v 7.10318 H -34.422519 v -7.10318 z"
       style="fill:#99ff99;fill-opacity:1;fill-rule:nonzero;stroke:none;stroke-width:0.35277775"
       id="path600"
       inkscape:connector-curvature="0" />
    <path
       d="m -6.3579888,22.226606 v 2.596092 H -34.248952 v -2.596092 z"
       style="fill:#ffffff;fill-opacity:1;fill-rule:nonzero;stroke:none;stroke-width:0.35277775"
       id="path602"
       inkscape:connector-curvature="0" />
    <path
       d="m -34.248952,22.226606 v 2.596092 h 27.8909632 v -2.596092 z"
       style="fill:none;stroke:#000000;stroke-width:0.17039166;stroke-linecap:round;stroke-linejoin:miter;stroke-miterlimit:8;stroke-dasharray:none;stroke-opacity:1"
       id="path604"
       inkscape:connector-curvature="0" />
    <path
       d="m -51.796824,24.188756 0.08185,8.1661 12.304888,-0.08184 c 2.851503,-0.306564 3.760964,-0.899231 4.793191,-1.696509 1.032228,-0.807508 1.083381,-2.054225 1.359253,-3.117144 0.255764,-1.338792 0.306917,-2.616553 0.388409,-3.301294"
       style="fill:#339966;fill-opacity:1;fill-rule:evenodd;stroke:none;stroke-width:0.35277775"
       id="path606"
       inkscape:connector-curvature="0" />
    <text
       y="28.225805"
       x="-45.858974"
       style="font-variant:normal;font-weight:normal;font-size:3.40331745px;font-family:Arial;-inkscape-font-specification:Arial;writing-mode:lr-tb;fill:#000000;fill-opacity:1;fill-rule:nonzero;stroke:none;stroke-width:0.35277775"
       id="text610">
      <tspan
         style="stroke-width:0.35277775"
         x="-45.858974 -43.968773"
         y="28.225805"
         sodipodi:role="line"
         id="tspan608">n+</tspan>
    </text>
    <path
       d="m 10.88332,24.25014 -0.08149,8.216899 -12.3359328,-0.09172 c -2.851504,-0.296335 -3.760967,-0.899585 -4.793194,-1.706741 -1.042458,-0.807508 -1.083382,-2.054225 -1.369483,-3.127375 -0.255411,-1.349374 -0.296334,-2.626783 -0.388409,-3.321755"
       style="fill:#339966;fill-opacity:1;fill-rule:evenodd;stroke:none;stroke-width:0.35277775"
       id="path612"
       inkscape:connector-curvature="0" />
    <text
       y="27.520601"
       x="1.8999383"
       style="font-variant:normal;font-weight:normal;font-size:3.40331745px;font-family:Arial;-inkscape-font-specification:Arial;writing-mode:lr-tb;fill:#000000;fill-opacity:1;fill-rule:nonzero;stroke:none;stroke-width:0.35277775"
       id="text616">
      <tspan
         style="stroke-width:0.35277775"
         x="1.8999383 3.7901399"
         y="27.520601"
         sodipodi:role="line"
         id="tspan614">n+</tspan>
    </text>
    <text
       y="16.15576"
       x="-48.066517"
       style="font-variant:normal;font-weight:normal;font-size:3.06606221px;font-family:Arial;-inkscape-font-specification:Arial;writing-mode:lr-tb;fill:#000000;fill-opacity:1;fill-rule:nonzero;stroke:none;stroke-width:0.35277775"
       id="text620">
      <tspan
         style="stroke-width:0.35277775"
         x="-48.066517"
         y="16.15576"
         id="tspan618">+</tspan>
    </text>
  </g>
</svg>
