<?xml version="1.0" encoding="UTF-8" standalone="no"?>
<!-- Created with Inkscape (http://www.inkscape.org/) -->

<svg
   xmlns:dc="http://purl.org/dc/elements/1.1/"
   xmlns:cc="http://creativecommons.org/ns#"
   xmlns:rdf="http://www.w3.org/1999/02/22-rdf-syntax-ns#"
   xmlns:svg="http://www.w3.org/2000/svg"
   xmlns="http://www.w3.org/2000/svg"
   xmlns:sodipodi="http://sodipodi.sourceforge.net/DTD/sodipodi-0.dtd"
   xmlns:inkscape="http://www.inkscape.org/namespaces/inkscape"
   width="103.16784mm"
   height="63.921547mm"
   viewBox="0 0 103.16784 63.921547"
   version="1.1"
   id="svg4537"
   inkscape:version="0.92.3 (2405546, 2018-03-11)"
   sodipodi:docname="freqop.svg">
  <defs
     id="defs4531" />
  <sodipodi:namedview
     id="base"
     pagecolor="#ffffff"
     bordercolor="#666666"
     borderopacity="1.0"
     inkscape:pageopacity="0.0"
     inkscape:pageshadow="2"
     inkscape:zoom="1.4"
     inkscape:cx="23.357905"
     inkscape:cy="147.94185"
     inkscape:document-units="mm"
     inkscape:current-layer="layer1"
     showgrid="false"
     fit-margin-top="0"
     fit-margin-left="0"
     fit-margin-right="0"
     fit-margin-bottom="0"
     inkscape:window-width="1296"
     inkscape:window-height="704"
     inkscape:window-x="70"
     inkscape:window-y="27"
     inkscape:window-maximized="1" />
  <metadata
     id="metadata4534">
    <rdf:RDF>
      <cc:Work
         rdf:about="">
        <dc:format>image/svg+xml</dc:format>
        <dc:type
           rdf:resource="http://purl.org/dc/dcmitype/StillImage" />
        <dc:title></dc:title>
      </cc:Work>
    </rdf:RDF>
  </metadata>
  <g
     inkscape:label="Layer 1"
     inkscape:groupmode="layer"
     id="layer1"
     transform="translate(-89.479007,-107.03303)">
    <path
       d="m 189.78137,114.24788 v 47.02316 h -82.671 v -47.02316 z"
       style="fill:#ffffff;fill-opacity:1;fill-rule:nonzero;stroke:none;stroke-width:0.35277775"
       id="path4320"
       inkscape:connector-curvature="0" />
    <path
       d="m 107.11037,151.86846 h 82.671 m -82.671,-9.41282 h 82.671 m -82.671,-9.40259 h 82.671 m -82.671,-9.40258 h 82.671 m -82.671,-9.40259 h 82.671"
       style="fill:none;stroke:#000000;stroke-width:0.01023056;stroke-linecap:butt;stroke-linejoin:miter;stroke-miterlimit:10;stroke-dasharray:none;stroke-opacity:1"
       id="path4322"
       inkscape:connector-curvature="0" />
    <path
       d="m 189.78137,114.24788 v 47.02316 h -82.671 v -47.02316 z"
       style="fill:none;stroke:#808080;stroke-width:0.16404167;stroke-linecap:round;stroke-linejoin:round;stroke-miterlimit:10;stroke-dasharray:none;stroke-opacity:1"
       id="path4324"
       inkscape:connector-curvature="0" />
    <path
       d="m 107.11037,114.24788 v 47.02316 m -0.82762,0 h 0.82762 m -0.82762,-9.40258 h 0.82762 m -0.82762,-9.41282 h 0.82762 m -0.82762,-9.40259 h 0.82762 m -0.82762,-9.40258 h 0.82762 m -0.82762,-9.40259 h 0.82762 m 0,47.02316 h 82.671 m -82.671,0.81774 v -0.81774 m 10.39389,0.81774 v -0.81774 m 10.23055,0.81774 v -0.81774 m 10.39389,0.81774 v -0.81774 m 10.40413,0.81774 v -0.81774 m 10.23055,0.81774 v -0.81774 m 10.39389,0.81774 v -0.81774 m 10.23021,0.81774 v -0.81774 m 10.39389,0.81774 v -0.81774"
       style="fill:none;stroke:#000000;stroke-width:0.01023056;stroke-linecap:round;stroke-linejoin:round;stroke-miterlimit:10;stroke-dasharray:none;stroke-opacity:1"
       id="path4326"
       inkscape:connector-curvature="0" />
    <path
       d="m 119.48722,155.66011 0.99131,-1.31833 0.49071,-0.66428 0.66428,-0.82797 0.81739,-0.81738 1.15499,-0.99166 0.99131,-0.99131 1.15499,-0.9913 1.98261,-1.98262 1.155,-0.9913 0.9913,-0.81774 0.99131,-0.82797 0.82797,-0.82761 0.98107,-0.65405 0.66428,-0.33726 0.66428,-0.16369 0.81774,-0.16334 0.99131,-0.16369 h 2.1463 l 2.30963,-0.16333 h 0.99131 l 0.9913,-0.32703 0.82797,-0.3376 0.81774,-0.49036 1.4919,-1.155 1.48202,-1.15464 0.82797,-0.50095 0.82762,-0.49071 0.98107,-0.32703 1.16523,-0.33725 3.46463,-0.49036 0.98107,-0.16369 1.65559,-0.32702 0.66463,-0.33726 0.32703,-0.32703 0.49036,-0.32702 0.50094,-0.16369 h 1.31833 l 1.64536,0.16369 h 2.64724 l 0.65405,-0.16369 1.31833,-0.50059 1.16523,-0.82797 0.98107,-0.81739 0.82762,-0.82797 v -0.32702 l -0.16334,-0.33726 -0.16369,-0.49071 v -0.16334 l 0.16369,-0.16369 0.32703,-0.16333 0.50059,-0.17392 2.30999,-0.98108 0.49036,-0.17356 0.50094,-0.16369 0.65405,-0.32703 0.50095,-0.49071 0.32702,-0.33726 0.49036,-0.49036 0.99131,-0.82797 1.15499,-1.15499 0.33726,-0.65405 0.32702,-0.66428 0.49072,-0.82762 0.33725,-0.49071 0.49037,-0.33726 0.66463,-0.49071 0.9913,-0.32703 2.14595,-0.9913 2.30999,-0.82762 2.13607,-0.99166"
       style="fill:none;stroke:#000080;stroke-width:0.32984722;stroke-linecap:round;stroke-linejoin:round;stroke-miterlimit:10;stroke-dasharray:none;stroke-opacity:1"
       id="path4328"
       inkscape:connector-curvature="0" />
    <path
       d="m 119.48722,154.66881 0.99131,0.9913 -0.99131,0.99131 -0.99131,-0.99131 z"
       style="fill:#000080;fill-opacity:1;fill-rule:evenodd;stroke:#000080;stroke-width:0.16509999;stroke-linecap:round;stroke-linejoin:round;stroke-miterlimit:10;stroke-dasharray:none;stroke-opacity:1"
       id="path4330"
       inkscape:connector-curvature="0" />
    <path
       d="m 121.63352,151.86846 0.98108,0.98107 -0.98108,0.99131 -0.99166,-0.99131 z"
       style="fill:#000080;fill-opacity:1;fill-rule:evenodd;stroke:#000080;stroke-width:0.16509999;stroke-linecap:round;stroke-linejoin:round;stroke-miterlimit:10;stroke-dasharray:none;stroke-opacity:1"
       id="path4332"
       inkscape:connector-curvature="0" />
    <path
       d="m 125.7522,148.06657 0.99131,0.99131 -0.99131,0.9913 -0.9913,-0.9913 z"
       style="fill:#000080;fill-opacity:1;fill-rule:evenodd;stroke:#000080;stroke-width:0.16509999;stroke-linecap:round;stroke-linejoin:round;stroke-miterlimit:10;stroke-dasharray:none;stroke-opacity:1"
       id="path4334"
       inkscape:connector-curvature="0" />
    <path
       d="m 129.88111,144.27491 0.99131,0.99131 -0.99131,0.99131 -0.9913,-0.99131 z"
       style="fill:#000080;fill-opacity:1;fill-rule:evenodd;stroke:#000080;stroke-width:0.16509999;stroke-linecap:round;stroke-linejoin:round;stroke-miterlimit:10;stroke-dasharray:none;stroke-opacity:1"
       id="path4336"
       inkscape:connector-curvature="0" />
    <path
       d="m 134.01002,141.46434 0.99131,0.9913 -0.99131,0.99131 -0.9913,-0.99131 z"
       style="fill:#000080;fill-opacity:1;fill-rule:evenodd;stroke:#000080;stroke-width:0.16509999;stroke-linecap:round;stroke-linejoin:round;stroke-miterlimit:10;stroke-dasharray:none;stroke-opacity:1"
       id="path4338"
       inkscape:connector-curvature="0" />
    <path
       d="m 142.25761,140.6466 0.99131,0.99165 -0.99131,0.98108 -0.9913,-0.98108 z"
       style="fill:#000080;fill-opacity:1;fill-rule:evenodd;stroke:#000080;stroke-width:0.16509999;stroke-linecap:round;stroke-linejoin:round;stroke-miterlimit:10;stroke-dasharray:none;stroke-opacity:1"
       id="path4340"
       inkscape:connector-curvature="0" />
    <path
       d="m 148.53283,136.51769 0.98107,0.9913 -0.98107,0.99166 -0.99131,-0.99166 z"
       style="fill:#000080;fill-opacity:1;fill-rule:evenodd;stroke:#000080;stroke-width:0.16509999;stroke-linecap:round;stroke-linejoin:round;stroke-miterlimit:10;stroke-dasharray:none;stroke-opacity:1"
       id="path4342"
       inkscape:connector-curvature="0" />
    <path
       d="m 156.78042,134.87233 0.99166,0.99131 -0.99166,0.98107 -0.99131,-0.98107 z"
       style="fill:#000080;fill-opacity:1;fill-rule:evenodd;stroke:#000080;stroke-width:0.16509999;stroke-linecap:round;stroke-linejoin:round;stroke-miterlimit:10;stroke-dasharray:none;stroke-opacity:1"
       id="path4344"
       inkscape:connector-curvature="0" />
    <path
       d="m 158.76338,133.71734 0.99131,0.9913 -0.99131,0.98143 -0.9913,-0.98143 z"
       style="fill:#000080;fill-opacity:1;fill-rule:evenodd;stroke:#000080;stroke-width:0.16509999;stroke-linecap:round;stroke-linejoin:round;stroke-miterlimit:10;stroke-dasharray:none;stroke-opacity:1"
       id="path4346"
       inkscape:connector-curvature="0" />
    <path
       d="m 165.02836,133.71734 0.99131,0.9913 -0.99131,0.98143 -0.9913,-0.98143 z"
       style="fill:#000080;fill-opacity:1;fill-rule:evenodd;stroke:#000080;stroke-width:0.16509999;stroke-linecap:round;stroke-linejoin:round;stroke-miterlimit:10;stroke-dasharray:none;stroke-opacity:1"
       id="path4348"
       inkscape:connector-curvature="0" />
    <path
       d="m 169.15727,130.90675 0.99131,0.99166 -0.99131,0.99131 -0.9913,-0.99131 z"
       style="fill:#000080;fill-opacity:1;fill-rule:evenodd;stroke:#000080;stroke-width:0.16509999;stroke-linecap:round;stroke-linejoin:round;stroke-miterlimit:10;stroke-dasharray:none;stroke-opacity:1"
       id="path4350"
       inkscape:connector-curvature="0" />
    <path
       d="m 169.15727,129.2614 0.99131,0.9913 -0.99131,0.99131 -0.9913,-0.99131 z"
       style="fill:#000080;fill-opacity:1;fill-rule:evenodd;stroke:#000080;stroke-width:0.16509999;stroke-linecap:round;stroke-linejoin:round;stroke-miterlimit:10;stroke-dasharray:none;stroke-opacity:1"
       id="path4352"
       inkscape:connector-curvature="0" />
    <path
       d="m 173.28618,127.60581 0.99131,0.99131 -0.99131,0.9913 -0.9913,-0.9913 z"
       style="fill:#000080;fill-opacity:1;fill-rule:evenodd;stroke:#000080;stroke-width:0.16509999;stroke-linecap:round;stroke-linejoin:round;stroke-miterlimit:10;stroke-dasharray:none;stroke-opacity:1"
       id="path4354"
       inkscape:connector-curvature="0" />
    <path
       d="m 175.25856,125.96046 0.99131,0.9913 -0.99131,0.99131 -0.98107,-0.99131 z"
       style="fill:#000080;fill-opacity:1;fill-rule:evenodd;stroke:#000080;stroke-width:0.16509999;stroke-linecap:round;stroke-linejoin:round;stroke-miterlimit:10;stroke-dasharray:none;stroke-opacity:1"
       id="path4356"
       inkscape:connector-curvature="0" />
    <path
       d="m 177.40486,123.97749 0.99131,0.99131 -0.99131,0.99166 -0.9913,-0.99166 z"
       style="fill:#000080;fill-opacity:1;fill-rule:evenodd;stroke:#000080;stroke-width:0.16509999;stroke-linecap:round;stroke-linejoin:round;stroke-miterlimit:10;stroke-dasharray:none;stroke-opacity:1"
       id="path4358"
       inkscape:connector-curvature="0" />
    <path
       d="m 179.38748,121.01381 0.99165,0.98107 -0.99165,0.99131 -0.99131,-0.99131 z"
       style="fill:#000080;fill-opacity:1;fill-rule:evenodd;stroke:#000080;stroke-width:0.16509999;stroke-linecap:round;stroke-linejoin:round;stroke-miterlimit:10;stroke-dasharray:none;stroke-opacity:1"
       id="path4360"
       inkscape:connector-curvature="0" />
    <path
       d="m 187.63542,117.37526 0.99131,0.9913 -0.99131,0.99166 -0.98142,-0.99166 z"
       style="fill:#000080;fill-opacity:1;fill-rule:evenodd;stroke:#000080;stroke-width:0.16509999;stroke-linecap:round;stroke-linejoin:round;stroke-miterlimit:10;stroke-dasharray:none;stroke-opacity:1"
       id="path4362"
       inkscape:connector-curvature="0" />
    <text
       y="109.34379"
       x="111.39106"
       transform="scale(1.0001069,0.99989312)"
       style="font-variant:normal;font-weight:bold;font-size:3.13515353px;font-family:Arial;-inkscape-font-specification:'Arial Bold';writing-mode:lr-tb;fill:#000000;fill-opacity:1;fill-rule:nonzero;stroke:none;stroke-width:0.35274008"
       id="text4366">
      <tspan
         style="stroke-width:0.35274008"
         x="111.39106 113.3753 114.693 116.50481 118.31661 120.30085 122.11266 124.0969 125.9087 126.73701 128.54536 129.37367 131.35791 133.16972 133.99803 135.98227 137.96651 139.77831 141.09601 142.9144 144.72621 145.54417 147.52841 149.51265 150.34096 152.3252 154.13699 154.9653 156.94954 158.26724 160.25148 162.06329 163.87511 165.6869 167.4987 169.48294 171.46718 172.7849 174.59669 176.40851 177.23682 178.05476 180.03775 181.0291 182.84749"
         y="109.34379"
         sodipodi:role="line"
         id="tspan4364">Frecuencia de operación de procesadores Intel</tspan>
    </text>
    <text
       y="162.19798"
       x="93.56897"
       transform="scale(1.0001069,0.99989312)"
       style="font-variant:normal;font-weight:bold;font-size:2.64011836px;font-family:Arial;-inkscape-font-specification:'Arial Bold';writing-mode:lr-tb;fill:#000000;fill-opacity:1;fill-rule:nonzero;stroke:none;stroke-width:0.35274008"
       id="text4384">
      <tspan
         style="stroke-width:0.35274008"
         x="93.56897 95.052193 95.716972 97.200188 98.683411 100.49216 101.98409 103.4673"
         y="162.19798"
         sodipodi:role="line"
         id="tspan4368">1,00E+05</tspan>
      <tspan
         style="stroke-width:0.35274008"
         x="93.56897 95.052193 95.716972 97.200188 98.683411 100.49216 101.98409 103.4673"
         y="152.7944"
         sodipodi:role="line"
         id="tspan4370">1,00E+06</tspan>
      <tspan
         style="stroke-width:0.35274008"
         x="93.56897 95.052193 95.716972 97.200188 98.683411 100.49216 101.98409 103.4673"
         y="143.39084"
         sodipodi:role="line"
         id="tspan4372">1,00E+07</tspan>
      <tspan
         style="stroke-width:0.35274008"
         x="93.56897 95.052193 95.716972 97.200188 98.683411 100.49216 101.98409 103.4673"
         y="133.97696"
         sodipodi:role="line"
         id="tspan4374">1,00E+08</tspan>
      <tspan
         style="stroke-width:0.35274008"
         x="93.56897 95.052193 95.716972 97.200188 98.683411 100.49216 101.98409 103.4673"
         y="124.57339"
         sodipodi:role="line"
         id="tspan4376">1,00E+09</tspan>
      <tspan
         style="stroke-width:0.35274008"
         x="93.56897 95.052193 95.716972 97.200188 98.683411 100.49216 101.98409 103.4673"
         y="115.16982"
         sodipodi:role="line"
         id="tspan4378">1,00E+10</tspan>
      <tspan
         style="stroke-width:0.35274008"
         x="104.13551 105.61979 107.10406 108.58834 114.52517 116.00945 117.49372 118.978 124.75141 126.23278 127.71706 129.20132 135.13817 136.61954 138.10381 139.58809 145.52492 147.01659 148.50085 149.98514 155.76857 157.25285 158.73712 160.22139 166.15823 167.6425 169.12679 170.61105 176.38446 177.86583 179.35011 180.83438 186.77122 188.26288 189.74716 191.23143"
         y="166.15341"
         sodipodi:role="line"
         id="tspan4380">196519701975198019851990199520002005</tspan>
      <tspan
         style="stroke-width:0.35274008"
         x="145.88054 147.68875 149.34464"
         y="170.94707"
         sodipodi:role="line"
         id="tspan4382">Año</tspan>
    </text>
    <text
       y="91.401627"
       x="-147.56023"
       transform="matrix(0,-1.0001069,0.99989312,0,0,0)"
       style="font-variant:normal;font-weight:bold;font-size:2.64011836px;font-family:Arial;-inkscape-font-specification:'Arial Bold';writing-mode:lr-tb;fill:#000000;fill-opacity:1;fill-rule:nonzero;stroke:none;stroke-width:0.35274008"
       id="text4388">
      <tspan
         style="stroke-width:0.35274008"
         x="-147.56023 -145.91438 -144.92354 -143.44217 -141.9505 -140.30492 -138.82355 -137.16766 -135.68629 -135.01834 -133.53697 -132.87219 -132.05904 -130.07683 -128.75862"
         y="91.401627"
         sodipodi:role="line"
         id="tspan4386">Frecuencia (Hz)</tspan>
    </text>
    <text
       y="141.27388"
       x="128.88721"
       transform="scale(1.0000987,0.99990131)"
       style="font-variant:normal;font-weight:normal;font-size:2.14510059px;font-family:Arial;-inkscape-font-specification:Arial;writing-mode:lr-tb;fill:#000000;fill-opacity:1;fill-rule:nonzero;stroke:none;stroke-width:0.35274297"
       id="text4394">
      <tspan
         style="stroke-width:0.35274297"
         x="128.88721 130.0417 131.1962 132.35069"
         y="141.27388"
         sodipodi:role="line"
         id="tspan4392">8085</tspan>
    </text>
    <text
       y="155.93613"
       x="112.97688"
       style="font-variant:normal;font-weight:normal;font-size:2.38128543px;font-family:Arial;-inkscape-font-specification:Arial;writing-mode:lr-tb;fill:#000000;fill-opacity:1;fill-rule:nonzero;stroke:none;stroke-width:0.35277775"
       id="text4436">
      <tspan
         style="stroke-width:0.35277775"
         x="112.97688 114.29755 115.6182 116.93887"
         y="155.93613"
         sodipodi:role="line"
         id="tspan4428">4004</tspan>
      <tspan
         style="stroke-width:0.35277775"
         x="115.31721 116.63787 117.95853 119.27919"
         y="152.80878"
         sodipodi:role="line"
         id="tspan4430">8008</tspan>
      <tspan
         style="stroke-width:0.35277775"
         x="119.42564 120.7463 122.06696 123.38763"
         y="148.95586"
         sodipodi:role="line"
         id="tspan4432">8080</tspan>
      <tspan
         style="stroke-width:0.35277775"
         x="123.57504 124.89569 126.21635 127.53701"
         y="145.09271"
         sodipodi:role="line"
         id="tspan4434">8085</tspan>
    </text>
    <path
       d="m 134.07141,137.56014 v 3.8735 h -5.7845 v -3.8735 z"
       style="fill:#ffffff;fill-opacity:1;fill-rule:nonzero;stroke:none;stroke-width:0.35277775"
       id="path4438"
       inkscape:connector-curvature="0" />
    <path
       d="m 128.28656,137.56014 v 3.8735 h 5.78449 v -3.8735 z"
       style="fill:none;stroke:#ffffff;stroke-width:0.12770554;stroke-linecap:round;stroke-linejoin:miter;stroke-miterlimit:8;stroke-dasharray:none;stroke-opacity:1"
       id="path4440"
       inkscape:connector-curvature="0" />
    <text
       y="141.4541"
       x="128.42982"
       style="font-variant:normal;font-weight:normal;font-size:2.38128543px;font-family:Arial;-inkscape-font-specification:Arial;writing-mode:lr-tb;fill:#000000;fill-opacity:1;fill-rule:nonzero;stroke:none;stroke-width:0.35277775"
       id="text4462">
      <tspan
         style="stroke-width:0.35277775"
         x="128.42982 129.75047 131.07114 132.3918"
         y="141.4541"
         sodipodi:role="line"
         id="tspan4442">8086</tspan>
      <tspan
         style="stroke-width:0.35277775"
         x="136.13567 137.45584 138.77603 140.09621 141.4164"
         y="140.47301"
         sodipodi:role="line"
         id="tspan4444">80286</tspan>
      <tspan
         style="stroke-width:0.35277775"
         x="143.87221 145.1924 146.51259 147.83276 149.15295"
         y="135.66948"
         sodipodi:role="line"
         id="tspan4446">80386</tspan>
      <tspan
         style="stroke-width:0.35277775"
         x="151.61902 152.93919 154.25938 155.57956 156.89975"
         y="139.5224"
         sodipodi:role="line"
         id="tspan4448">80486</tspan>
      <tspan
         style="stroke-width:0.35277775"
         x="153.56096 155.28215 156.87236"
         y="133.72755"
         sodipodi:role="line"
         id="tspan4450">DX2</tspan>
      <tspan
         style="stroke-width:0.35277775"
         x="164.1591 165.74933 167.07523 168.40112 169.06502 169.58582 170.91409"
         y="138.32652"
         sodipodi:role="line"
         id="tspan4452">Pentium</tspan>
      <tspan
         style="stroke-width:0.35277775"
         x="157.39339 158.98242 160.30713 161.63185 162.29456 162.81534 164.14363 166.12794 166.78232 168.37135 169.16504"
         y="128.65826"
         sodipodi:role="line"
         id="tspan4454">Pentium Pro</tspan>
      <tspan
         style="stroke-width:0.35277775"
         x="173.18346 174.77058 176.09338 177.4162 178.077 178.59778 179.92607 181.90848 182.56287 183.22366"
         y="131.78561"
         sodipodi:role="line"
         id="tspan4456">Pentium II</tspan>
      <tspan
         style="stroke-width:0.35277775"
         x="165.11971 166.70802 168.03203 169.35602 170.01801 170.5388 171.86708 173.85069 174.50507 175.16707 175.82907"
         y="125.04038"
         sodipodi:role="line"
         id="tspan4458">Pentium III</tspan>
      <tspan
         style="stroke-width:0.35277775"
         x="171.56847 173.15775 174.4827 175.80763 176.47058 176.99138 178.31966 180.30421 180.95859"
         y="119.9711"
         sodipodi:role="line"
         id="tspan4460">Pentium 4</tspan>
    </text>
  </g>
</svg>
