<?xml version="1.0" encoding="UTF-8" standalone="no"?>
<!-- Created with Inkscape (http://www.inkscape.org/) -->

<svg
   xmlns:dc="http://purl.org/dc/elements/1.1/"
   xmlns:cc="http://creativecommons.org/ns#"
   xmlns:rdf="http://www.w3.org/1999/02/22-rdf-syntax-ns#"
   xmlns:svg="http://www.w3.org/2000/svg"
   xmlns="http://www.w3.org/2000/svg"
   xmlns:sodipodi="http://sodipodi.sourceforge.net/DTD/sodipodi-0.dtd"
   xmlns:inkscape="http://www.inkscape.org/namespaces/inkscape"
   width="103.94211mm"
   height="68.438812mm"
   viewBox="0 0 103.94211 68.438812"
   version="1.1"
   id="svg1121"
   inkscape:version="0.92.3 (2405546, 2018-03-11)"
   sodipodi:docname="power3.svg">
  <defs
     id="defs1115" />
  <sodipodi:namedview
     id="base"
     pagecolor="#ffffff"
     bordercolor="#666666"
     borderopacity="1.0"
     inkscape:pageopacity="0.0"
     inkscape:pageshadow="2"
     inkscape:zoom="0.98994949"
     inkscape:cx="90.368036"
     inkscape:cy="152.84142"
     inkscape:document-units="mm"
     inkscape:current-layer="layer1"
     showgrid="false"
     fit-margin-top="0"
     fit-margin-left="0"
     fit-margin-right="0"
     fit-margin-bottom="0"
     inkscape:window-width="1296"
     inkscape:window-height="704"
     inkscape:window-x="70"
     inkscape:window-y="27"
     inkscape:window-maximized="1" />
  <metadata
     id="metadata1118">
    <rdf:RDF>
      <cc:Work
         rdf:about="">
        <dc:format>image/svg+xml</dc:format>
        <dc:type
           rdf:resource="http://purl.org/dc/dcmitype/StillImage" />
        <dc:title></dc:title>
      </cc:Work>
    </rdf:RDF>
  </metadata>
  <g
     inkscape:label="Layer 1"
     inkscape:groupmode="layer"
     id="layer1"
     transform="translate(-53.862277,-114.61393)">
    <path
       d="m 133.94385,152.42327 19.18335,-25.1005"
       style="fill:none;stroke:#ff9900;stroke-width:0.38311666;stroke-linecap:butt;stroke-linejoin:round;stroke-miterlimit:10;stroke-dasharray:none;stroke-opacity:1"
       id="path348"
       inkscape:connector-curvature="0" />
    <path
       d="m 138.34899,144.54362 1.70673,1.73743 -1.70673,1.73743 -1.67605,-1.73743 1.67605,-1.73743"
       style="fill:#ff3300;fill-opacity:1;fill-rule:evenodd;stroke:none;stroke-width:0.35277775"
       id="path350"
       inkscape:connector-curvature="0" />
    <path
       d="m 138.34899,144.54362 1.70673,1.73743 -1.70673,1.73743 -1.67605,-1.73743 z"
       style="fill:none;stroke:#ffff00;stroke-width:0.19155833;stroke-linecap:round;stroke-linejoin:round;stroke-miterlimit:10;stroke-dasharray:none;stroke-opacity:1"
       id="path352"
       inkscape:connector-curvature="0" />
    <path
       d="m 142.71285,139.6072 1.66581,1.73743 -1.66581,1.73743 -1.67605,-1.73743 1.67605,-1.73743"
       style="fill:#ff3300;fill-opacity:1;fill-rule:evenodd;stroke:none;stroke-width:0.35277775"
       id="path354"
       inkscape:connector-curvature="0" />
    <path
       d="m 142.71285,139.6072 1.66581,1.73743 -1.66581,1.73743 -1.67605,-1.73743 z"
       style="fill:none;stroke:#ffff00;stroke-width:0.19155833;stroke-linecap:round;stroke-linejoin:round;stroke-miterlimit:10;stroke-dasharray:none;stroke-opacity:1"
       id="path356"
       inkscape:connector-curvature="0" />
    <path
       d="m 146.7906,134.10881 1.6764,1.73743 -1.6764,1.73743 -1.68627,-1.73743 1.68627,-1.73743"
       style="fill:#ff3300;fill-opacity:1;fill-rule:evenodd;stroke:none;stroke-width:0.35277775"
       id="path358"
       inkscape:connector-curvature="0" />
    <path
       d="m 146.7906,134.10881 1.6764,1.73743 -1.6764,1.73743 -1.68627,-1.73743 z"
       style="fill:none;stroke:#ffff00;stroke-width:0.19155833;stroke-linecap:round;stroke-linejoin:round;stroke-miterlimit:10;stroke-dasharray:none;stroke-opacity:1"
       id="path360"
       inkscape:connector-curvature="0" />
    <path
       d="m 151.1139,127.91544 1.67604,1.73743 -1.67604,1.73743 -1.68628,-1.73743 1.68628,-1.73743"
       style="fill:#ff3300;fill-opacity:1;fill-rule:evenodd;stroke:none;stroke-width:0.35277775"
       id="path362"
       inkscape:connector-curvature="0" />
    <path
       d="m 151.1139,127.91544 1.67604,1.73743 -1.67604,1.73743 -1.68628,-1.73743 z"
       style="fill:none;stroke:#ffff00;stroke-width:0.19155833;stroke-linecap:round;stroke-linejoin:round;stroke-miterlimit:10;stroke-dasharray:none;stroke-opacity:1"
       id="path364"
       inkscape:connector-curvature="0" />
    <path
       d="m 69.904453,157.4313 85.522507,0.0409 m -85.522507,-13.67472 85.522507,0.0511 m -85.737349,-14.20601 85.532739,0.0205"
       style="fill:none;stroke:#000000;stroke-width:0.01023056;stroke-linecap:round;stroke-linejoin:round;stroke-miterlimit:10;stroke-dasharray:none;stroke-opacity:1"
       id="path366"
       inkscape:connector-curvature="0" />
    <path
       d="m 69.904453,116.01907 85.522507,0.0205"
       style="fill:none;stroke:#ffff99;stroke-width:0.01023056;stroke-linecap:round;stroke-linejoin:round;stroke-miterlimit:10;stroke-dasharray:none;stroke-opacity:1"
       id="path368"
       inkscape:connector-curvature="0" />
    <path
       d="m 69.904453,116.01907 v 55.31167 h 85.522507 v -55.31167 z"
       style="fill:none;stroke:#000000;stroke-width:0.38311666;stroke-linecap:round;stroke-linejoin:miter;stroke-miterlimit:8;stroke-dasharray:none;stroke-opacity:1"
       id="path370"
       inkscape:connector-curvature="0" />
    <path
       d="m 69.904453,116.01907 0.04092,55.31167 m -0.04092,0 1.205794,0.0409 m -1.205794,-13.94036 1.205794,0.0409 m -1.205794,-13.67473 1.205794,0.0511 m -1.205794,-13.93013 1.205794,0.0205 m -1.205794,-13.9199 1.205794,0.0205 m -1.205794,55.29121 85.522507,0.0409 m -85.522507,-0.0409 0.04092,-0.98107 m 4.282017,0.98107 0.04092,-0.98107 m 4.282369,0.98107 0.02046,-0.98107 m 4.08799,0.98107 0.02045,-0.98107 m 4.302831,0.98107 0.02045,-0.98107 m 4.271788,0.98107 0.05115,-0.98107 m 4.272139,0.98107 0.04092,-0.98107 m 4.302479,0.98107 0.04092,-0.98107 m 4.047424,0.98107 0.0204,-0.98107 m 4.30247,0.98107 0.0205,-0.98107 m 4.30283,0.98107 0.0204,-0.98107 m 4.28202,0.98107 0.0409,-0.98107 m 4.30283,0.98107 0.0409,-0.98107 m 4.04707,0.98107 0.0204,-0.98107 m 4.30283,0.98107 0.0204,-0.98107 m 4.30247,0.98107 0.0205,-0.98107 m 4.28238,0.98107 0.0409,-0.98107 m 4.30248,0.98107 0.0409,-0.98107 m 4.04706,0.98107 0.0204,-0.98107 m 4.30284,0.98107 0.0205,-0.98107 m 4.2926,0.98107 0.0307,-0.98107 m -85.553198,2.21791 0.04092,-2.47332 m 21.329298,2.47332 0.05115,-2.47332 m 21.35011,2.47332 0.0204,-2.47332 m 21.35999,2.47332 0.0204,-2.47332 m 21.35011,2.47332 0.0307,-2.47332"
       style="fill:none;stroke:#000000;stroke-width:0.38311666;stroke-linecap:butt;stroke-linejoin:round;stroke-miterlimit:10;stroke-dasharray:none;stroke-opacity:1"
       id="path372"
       inkscape:connector-curvature="0" />
    <path
       d="m 72.551344,165.39279 1.206148,1.23684 -1.206148,1.23648 -1.205794,-1.23648 1.205794,-1.23684"
       style="fill:#000000;fill-opacity:1;fill-rule:evenodd;stroke:none;stroke-width:0.35277775"
       id="path374"
       inkscape:connector-curvature="0" />
    <path
       d="m 72.551344,165.39279 1.206148,1.23684 -1.206148,1.23648 -1.205794,-1.23648 z"
       style="fill:none;stroke:#000000;stroke-width:0.19155833;stroke-linecap:round;stroke-linejoin:round;stroke-miterlimit:10;stroke-dasharray:none;stroke-opacity:1"
       id="path376"
       inkscape:connector-curvature="0" />
    <path
       d="m 74.707875,165.13738 1.195564,1.24671 -1.195564,1.24707 -1.206147,-1.24707 1.206147,-1.24671"
       style="fill:#000000;fill-opacity:1;fill-rule:evenodd;stroke:none;stroke-width:0.35277775"
       id="path378"
       inkscape:connector-curvature="0" />
    <path
       d="m 74.707875,165.13738 1.195564,1.24671 -1.195564,1.24707 -1.206147,-1.24707 z"
       style="fill:none;stroke:#000000;stroke-width:0.19155833;stroke-linecap:round;stroke-linejoin:round;stroke-miterlimit:10;stroke-dasharray:none;stroke-opacity:1"
       id="path380"
       inkscape:connector-curvature="0" />
    <path
       d="m 79.020936,165.13738 1.226255,1.24671 -1.226255,1.24707 -1.195917,-1.24707 1.195917,-1.24671"
       style="fill:#000000;fill-opacity:1;fill-rule:evenodd;stroke:none;stroke-width:0.35277775"
       id="path382"
       inkscape:connector-curvature="0" />
    <path
       d="m 79.020936,165.13738 1.226255,1.24671 -1.226255,1.24707 -1.195917,-1.24707 z"
       style="fill:none;stroke:#000000;stroke-width:0.19155833;stroke-linecap:round;stroke-linejoin:round;stroke-miterlimit:10;stroke-dasharray:none;stroke-opacity:1"
       id="path384"
       inkscape:connector-curvature="0" />
    <path
       d="m 83.139616,165.13738 1.195565,1.24671 -1.195565,1.24707 -1.206148,-1.24707 1.206148,-1.24671"
       style="fill:#000000;fill-opacity:1;fill-rule:evenodd;stroke:none;stroke-width:0.35277775"
       id="path386"
       inkscape:connector-curvature="0" />
    <path
       d="m 83.139616,165.13738 1.195565,1.24671 -1.195565,1.24707 -1.206148,-1.24707 z"
       style="fill:none;stroke:#000000;stroke-width:0.19155833;stroke-linecap:round;stroke-linejoin:round;stroke-miterlimit:10;stroke-dasharray:none;stroke-opacity:1"
       id="path388"
       inkscape:connector-curvature="0" />
    <path
       d="m 87.452324,158.94401 1.206149,1.24672 -1.206149,1.23684 -1.195564,-1.23684 1.195564,-1.24672"
       style="fill:#000000;fill-opacity:1;fill-rule:evenodd;stroke:none;stroke-width:0.35277775"
       id="path390"
       inkscape:connector-curvature="0" />
    <path
       d="m 87.452324,158.94401 1.206149,1.24672 -1.206149,1.23684 -1.195564,-1.23684 z"
       style="fill:none;stroke:#000000;stroke-width:0.19155833;stroke-linecap:round;stroke-linejoin:round;stroke-miterlimit:10;stroke-dasharray:none;stroke-opacity:1"
       id="path392"
       inkscape:connector-curvature="0" />
    <path
       d="m 96.078093,161.42757 1.206148,1.23648 -1.206148,1.23649 -1.205794,-1.23649 1.205794,-1.23648"
       style="fill:#000000;fill-opacity:1;fill-rule:evenodd;stroke:none;stroke-width:0.35277775"
       id="path394"
       inkscape:connector-curvature="0" />
    <path
       d="m 96.078093,161.42757 1.206148,1.23648 -1.206148,1.23649 -1.205794,-1.23649 z"
       style="fill:none;stroke:#000000;stroke-width:0.19155833;stroke-linecap:round;stroke-linejoin:round;stroke-miterlimit:10;stroke-dasharray:none;stroke-opacity:1"
       id="path396"
       inkscape:connector-curvature="0" />
    <path
       d="m 102.59884,167.11999 1.19556,1.24707 -1.19556,1.23648 -1.20615,-1.23648 1.20615,-1.24707"
       style="fill:#000000;fill-opacity:1;fill-rule:evenodd;stroke:none;stroke-width:0.35277775"
       id="path398"
       inkscape:connector-curvature="0" />
    <path
       d="m 102.59884,167.11999 1.19556,1.24707 -1.19556,1.23648 -1.20615,-1.23648 z"
       style="fill:none;stroke:#000000;stroke-width:0.19155833;stroke-linecap:round;stroke-linejoin:round;stroke-miterlimit:10;stroke-dasharray:none;stroke-opacity:1"
       id="path400"
       inkscape:connector-curvature="0" />
    <path
       d="m 110.98966,165.13738 1.19556,1.24671 -1.19556,1.24707 -1.20615,-1.24707 1.20615,-1.24671"
       style="fill:#000000;fill-opacity:1;fill-rule:evenodd;stroke:none;stroke-width:0.35277775"
       id="path402"
       inkscape:connector-curvature="0" />
    <path
       d="m 110.98966,165.13738 1.19556,1.24671 -1.19556,1.24707 -1.20615,-1.24707 z"
       style="fill:none;stroke:#000000;stroke-width:0.19155833;stroke-linecap:round;stroke-linejoin:round;stroke-miterlimit:10;stroke-dasharray:none;stroke-opacity:1"
       id="path404"
       inkscape:connector-curvature="0" />
    <path
       d="m 117.46913,160.68144 1.19556,1.23649 -1.19556,1.23684 -1.19592,-1.23684 1.19592,-1.23649"
       style="fill:#000000;fill-opacity:1;fill-rule:evenodd;stroke:none;stroke-width:0.35277775"
       id="path406"
       inkscape:connector-curvature="0" />
    <path
       d="m 117.46913,160.68144 1.19556,1.23649 -1.19556,1.23684 -1.19592,-1.23684 z"
       style="fill:none;stroke:#000000;stroke-width:0.19155833;stroke-linecap:round;stroke-linejoin:round;stroke-miterlimit:10;stroke-dasharray:none;stroke-opacity:1"
       id="path408"
       inkscape:connector-curvature="0" />
    <path
       d="m 123.96906,157.96258 1.20614,1.23684 -1.20614,1.22626 -1.19557,-1.22626 1.19557,-1.23684"
       style="fill:#000000;fill-opacity:1;fill-rule:evenodd;stroke:none;stroke-width:0.35277775"
       id="path410"
       inkscape:connector-curvature="0" />
    <path
       d="m 123.96906,157.96258 1.20614,1.23684 -1.20614,1.22626 -1.19557,-1.22626 z"
       style="fill:none;stroke:#000000;stroke-width:0.19155833;stroke-linecap:round;stroke-linejoin:round;stroke-miterlimit:10;stroke-dasharray:none;stroke-opacity:1"
       id="path412"
       inkscape:connector-curvature="0" />
    <path
       d="m 134.52664,151.73852 1.18533,1.23684 -1.18533,1.23649 -1.19592,-1.23649 1.19592,-1.23684"
       style="fill:#000000;fill-opacity:1;fill-rule:evenodd;stroke:none;stroke-width:0.35277775"
       id="path414"
       inkscape:connector-curvature="0" />
    <path
       d="m 134.52664,151.73852 1.18533,1.23684 -1.18533,1.23649 -1.19592,-1.23649 z"
       style="fill:none;stroke:#000000;stroke-width:0.19155833;stroke-linecap:round;stroke-linejoin:round;stroke-miterlimit:10;stroke-dasharray:none;stroke-opacity:1"
       id="path416"
       inkscape:connector-curvature="0" />
    <path
       d="m 72.071214,166.13891 2.156178,-0.25541 m 0,0 4.323291,0.0409 m 0,-0.0409 4.10845,0.0409 m 0,-0.0409 4.323291,-6.19337 m 0,0 8.61554,2.48321 m 0,0 6.520396,5.69277 m 0,0 8.39081,-1.98261 m 0,0 6.46924,-4.45593 m 0,0 6.51052,-2.71886 m 0,0 10.56746,-6.22406"
       style="fill:none;stroke:#ff9900;stroke-width:0.38311666;stroke-linecap:butt;stroke-linejoin:round;stroke-miterlimit:10;stroke-dasharray:none;stroke-opacity:1"
       id="path418"
       inkscape:connector-curvature="0" />
    <path
       d="m 72.071214,164.90243 1.195564,1.23648 -1.195564,1.23649 -1.185686,-1.23649 1.185686,-1.23648"
       style="fill:#ffcc00;fill-opacity:1;fill-rule:evenodd;stroke:none;stroke-width:0.35277775"
       id="path420"
       inkscape:connector-curvature="0" />
    <path
       d="m 72.071214,164.90243 1.195564,1.23648 -1.195564,1.23649 -1.185686,-1.23649 z"
       style="fill:none;stroke:#ffcc00;stroke-width:0.19155833;stroke-linecap:round;stroke-linejoin:round;stroke-miterlimit:10;stroke-dasharray:none;stroke-opacity:1"
       id="path422"
       inkscape:connector-curvature="0" />
    <path
       d="m 74.237622,164.64666 1.195917,1.23684 -1.195917,1.23649 -1.205794,-1.23649 1.205794,-1.23684"
       style="fill:#ffcc00;fill-opacity:1;fill-rule:evenodd;stroke:none;stroke-width:0.35277775"
       id="path424"
       inkscape:connector-curvature="0" />
    <path
       d="m 74.237622,164.64666 1.195917,1.23684 -1.195917,1.23649 -1.205794,-1.23649 z"
       style="fill:none;stroke:#ffcc00;stroke-width:0.19155833;stroke-linecap:round;stroke-linejoin:round;stroke-miterlimit:10;stroke-dasharray:none;stroke-opacity:1"
       id="path426"
       inkscape:connector-curvature="0" />
    <path
       d="m 78.550683,164.64666 1.226256,1.23684 -1.226256,1.23649 -1.195916,-1.23649 1.195916,-1.23684"
       style="fill:#ffcc00;fill-opacity:1;fill-rule:evenodd;stroke:none;stroke-width:0.35277775"
       id="path428"
       inkscape:connector-curvature="0" />
    <path
       d="m 78.550683,164.64666 1.226256,1.23684 -1.226256,1.23649 -1.195916,-1.23649 z"
       style="fill:none;stroke:#ffcc00;stroke-width:0.19155833;stroke-linecap:round;stroke-linejoin:round;stroke-miterlimit:10;stroke-dasharray:none;stroke-opacity:1"
       id="path430"
       inkscape:connector-curvature="0" />
    <path
       d="m 82.659133,164.64666 1.185685,1.23684 -1.185685,1.23649 -1.195565,-1.23649 1.195565,-1.23684"
       style="fill:#ffcc00;fill-opacity:1;fill-rule:evenodd;stroke:none;stroke-width:0.35277775"
       id="path432"
       inkscape:connector-curvature="0" />
    <path
       d="m 82.659133,164.64666 1.185685,1.23684 -1.185685,1.23649 -1.195565,-1.23649 z"
       style="fill:none;stroke:#ffcc00;stroke-width:0.19155833;stroke-linecap:round;stroke-linejoin:round;stroke-miterlimit:10;stroke-dasharray:none;stroke-opacity:1"
       id="path434"
       inkscape:connector-curvature="0" />
    <path
       d="m 86.972193,158.45329 1.195565,1.24708 -1.195565,1.23648 -1.206145,-1.23648 1.206145,-1.24708"
       style="fill:#ffcc00;fill-opacity:1;fill-rule:evenodd;stroke:none;stroke-width:0.35277775"
       id="path436"
       inkscape:connector-curvature="0" />
    <path
       d="m 86.972193,158.45329 1.195565,1.24708 -1.195565,1.23648 -1.206145,-1.23648 z"
       style="fill:none;stroke:#ffcc00;stroke-width:0.19155833;stroke-linecap:round;stroke-linejoin:round;stroke-miterlimit:10;stroke-dasharray:none;stroke-opacity:1"
       id="path438"
       inkscape:connector-curvature="0" />
    <path
       d="m 95.608193,160.93685 1.205796,1.23649 -1.205796,1.23684 -1.195917,-1.23684 1.195917,-1.23649"
       style="fill:#ffcc00;fill-opacity:1;fill-rule:evenodd;stroke:none;stroke-width:0.35277775"
       id="path440"
       inkscape:connector-curvature="0" />
    <path
       d="m 95.608193,160.93685 1.205796,1.23649 -1.205796,1.23684 -1.195917,-1.23684 z"
       style="fill:none;stroke:#ffcc00;stroke-width:0.19155833;stroke-linecap:round;stroke-linejoin:round;stroke-miterlimit:10;stroke-dasharray:none;stroke-opacity:1"
       id="path442"
       inkscape:connector-curvature="0" />
    <path
       d="m 102.10812,166.62963 1.19592,1.24671 -1.19592,1.23649 -1.20579,-1.23649 1.20579,-1.24671"
       style="fill:#ffcc00;fill-opacity:1;fill-rule:evenodd;stroke:none;stroke-width:0.35277775"
       id="path444"
       inkscape:connector-curvature="0" />
    <path
       d="m 102.10812,166.62963 1.19592,1.24671 -1.19592,1.23649 -1.20579,-1.23649 z"
       style="fill:none;stroke:#ffcc00;stroke-width:0.19155833;stroke-linecap:round;stroke-linejoin:round;stroke-miterlimit:10;stroke-dasharray:none;stroke-opacity:1"
       id="path446"
       inkscape:connector-curvature="0" />
    <path
       d="m 110.50917,164.64666 1.18569,1.23684 -1.18569,1.23649 -1.19591,-1.23649 1.19591,-1.23684"
       style="fill:#ffcc00;fill-opacity:1;fill-rule:evenodd;stroke:none;stroke-width:0.35277775"
       id="path448"
       inkscape:connector-curvature="0" />
    <path
       d="m 110.50917,164.64666 1.18569,1.23684 -1.18569,1.23649 -1.19591,-1.23649 z"
       style="fill:none;stroke:#ffcc00;stroke-width:0.19155833;stroke-linecap:round;stroke-linejoin:round;stroke-miterlimit:10;stroke-dasharray:none;stroke-opacity:1"
       id="path450"
       inkscape:connector-curvature="0" />
    <path
       d="m 116.98864,160.20096 1.20615,1.22661 -1.20615,1.23648 -1.20579,-1.23648 1.20579,-1.22661"
       style="fill:#ffcc00;fill-opacity:1;fill-rule:evenodd;stroke:none;stroke-width:0.35277775"
       id="path452"
       inkscape:connector-curvature="0" />
    <path
       d="m 116.98864,160.20096 1.20615,1.22661 -1.20615,1.23648 -1.20579,-1.23648 z"
       style="fill:none;stroke:#ffcc00;stroke-width:0.19155833;stroke-linecap:round;stroke-linejoin:round;stroke-miterlimit:10;stroke-dasharray:none;stroke-opacity:1"
       id="path454"
       inkscape:connector-curvature="0" />
    <path
       d="m 123.35593,157.39038 1.20579,1.2573 -1.20579,1.22625 -1.20615,-1.22625 1.20615,-1.2573"
       style="fill:#ffcc00;fill-opacity:1;fill-rule:evenodd;stroke:none;stroke-width:0.35277775"
       id="path456"
       inkscape:connector-curvature="0" />
    <path
       d="m 123.35593,157.39038 1.20579,1.2573 -1.20579,1.22625 -1.20615,-1.22625 z"
       style="fill:none;stroke:#ffcc00;stroke-width:0.19155833;stroke-linecap:round;stroke-linejoin:round;stroke-miterlimit:10;stroke-dasharray:none;stroke-opacity:1"
       id="path458"
       inkscape:connector-curvature="0" />
    <path
       d="m 134.04615,151.2277 1.19592,1.24672 -1.19592,1.24707 -1.20579,-1.24707 1.20579,-1.24672"
       style="fill:#ffcc00;fill-opacity:1;fill-rule:evenodd;stroke:none;stroke-width:0.35277775"
       id="path460"
       inkscape:connector-curvature="0" />
    <path
       d="m 134.04615,151.2277 1.19592,1.24672 -1.19592,1.24707 -1.20579,-1.24707 z"
       style="fill:none;stroke:#ffcc00;stroke-width:0.19155833;stroke-linecap:round;stroke-linejoin:round;stroke-miterlimit:10;stroke-dasharray:none;stroke-opacity:1"
       id="path462"
       inkscape:connector-curvature="0" />
    <text
       y="158.93367"
       x="69.434235"
       style="font-variant:normal;font-weight:bold;font-size:3.06606221px;font-family:Arial;-inkscape-font-specification:'Arial Bold';writing-mode:lr-tb;fill:#000000;fill-opacity:1;fill-rule:nonzero;stroke:none;stroke-width:0.35277775"
       id="text498">
      <tspan
         style="stroke-width:0.35277775"
         x="69.434235 71.140495 72.846764 74.553024"
         y="158.93367"
         sodipodi:role="line"
         id="tspan464">4004</tspan>
      <tspan
         style="stroke-width:0.35277775"
         x="72.071053 73.777313 75.483574 77.189842"
         y="163.41013"
         sodipodi:role="line"
         id="tspan466">8008</tspan>
      <tspan
         style="stroke-width:0.35277775"
         x="72.796783 74.503052 76.209312 77.915581"
         y="168.62244"
         sodipodi:role="line"
         id="tspan468">8080</tspan>
      <tspan
         style="stroke-width:0.35277775"
         x="82.424217 84.130486 85.836746 87.543007"
         y="163.92123"
         sodipodi:role="line"
         id="tspan470">8085</tspan>
      <tspan
         style="stroke-width:0.35277775"
         x="84.335297 86.041557 87.747826 89.454086"
         y="155.21362"
         sodipodi:role="line"
         id="tspan472">8086</tspan>
      <tspan
         style="stroke-width:0.35277775"
         x="90.814804 92.521072 94.227333"
         y="166.65002"
         sodipodi:role="line"
         id="tspan474">286</tspan>
      <tspan
         style="stroke-width:0.35277775"
         x="98.479965 100.18623 101.89249"
         y="164.4118"
         sodipodi:role="line"
         id="tspan476">386</tspan>
      <tspan
         style="stroke-width:0.35277775"
         x="112.67583 114.38209 116.08836"
         y="167.36534"
         sodipodi:role="line"
         id="tspan478">486</tspan>
      <tspan
         style="stroke-width:0.35277775"
         x="120.36152 122.4069 124.11194 125.9856 127.0069 127.85958 129.73326 132.45929 135.56674 137.44041 138.63342 140.50708"
         y="163.41013"
         sodipodi:role="line"
         id="tspan480">Pentium®proc</tspan>
      <tspan
         style="stroke-width:0.35277775"
         x="126.13584 128.17999"
         y="159.42424"
         sodipodi:role="line"
         id="tspan482">P6</tspan>
      <tspan
         style="stroke-width:0.35277775"
         x="64.640755"
         y="172.0972"
         id="tspan484">1</tspan>
      <tspan
         style="stroke-width:0.35277775"
         x="62.473969 64.180229"
         y="158.19781"
         sodipodi:role="line"
         id="tspan486">10</tspan>
      <tspan
         style="stroke-width:0.35277775"
         x="60.317604 62.023869 63.730133"
         y="144.56396"
         sodipodi:role="line"
         id="tspan488">100</tspan>
      <tspan
         style="stroke-width:0.35277775"
         x="58.130585 59.836849 61.54311 63.249374"
         y="130.66458"
         sodipodi:role="line"
         id="tspan490">1000</tspan>
      <tspan
         style="stroke-width:0.35277775"
         x="55.974224 57.678032 59.381844 61.085655 62.789467"
         y="116.75478"
         sodipodi:role="line"
         id="tspan492">10000</tspan>
      <tspan
         style="stroke-width:0.35277775"
         x="65.601662 67.307922 69.014183 70.720451 86.980385 88.686653 90.392914 92.099174 108.34869 110.05495 111.76122 113.46749 129.72743 131.43369 133.13995 134.84622 151.10616 152.81242 154.51869 156.22495"
         y="178.03523"
         sodipodi:role="line"
         id="tspan494">19701980199020002010</tspan>
      <tspan
         style="stroke-width:0.35277775"
         x="108.58785 110.80215 112.67614"
         y="183.0228"
         sodipodi:role="line"
         id="tspan496">Año</tspan>
    </text>
    <text
       y="56.137794"
       x="-164.84094"
       transform="rotate(-90)"
       style="font-variant:normal;font-weight:bold;font-size:3.06606221px;font-family:Arial;-inkscape-font-specification:'Arial Bold';writing-mode:lr-tb;fill:#000000;fill-opacity:1;fill-rule:nonzero;stroke:none;stroke-width:0.35277775"
       id="text502">
      <tspan
         style="stroke-width:0.35277775"
         x="-164.84094 -162.62631 -160.92067 -159.04639 -157.34074 -156.48746 -154.61316 -152.90752 -150.18854 -148.31425 -146.6086 -145.74948 -143.8752 -142.00093 -140.979 -139.27335 -137.39906 -135.69342 -134.84013 -132.2858 -131.26389 -128.36859 -127.51531 -125.80966"
         y="56.137794"
         sodipodi:role="line"
         id="tspan500">Densidadde potencia(W/cm</tspan>
    </text>
    <text
       y="55.289505"
       x="-123.10172"
       transform="rotate(-90)"
       style="font-variant:normal;font-weight:bold;font-size:2.04402971px;font-family:Arial;-inkscape-font-specification:'Arial Bold';writing-mode:lr-tb;fill:#000000;fill-opacity:1;fill-rule:nonzero;stroke:none;stroke-width:0.35277775"
       id="text506">
      <tspan
         style="stroke-width:0.35277775"
         x="-123.10172"
         y="55.289505"
         id="tspan504">2</tspan>
    </text>
    <text
       y="56.137794"
       x="-121.96729"
       transform="rotate(-90)"
       style="font-variant:normal;font-weight:bold;font-size:3.06606221px;font-family:Arial;-inkscape-font-specification:'Arial Bold';writing-mode:lr-tb;fill:#000000;fill-opacity:1;fill-rule:nonzero;stroke:none;stroke-width:0.35277775"
       id="text510">
      <tspan
         style="stroke-width:0.35277775"
         x="-121.96729"
         y="56.137794"
         id="tspan508">)</tspan>
    </text>
  </g>
</svg>
