<?xml version="1.0" encoding="UTF-8" standalone="no"?>
<!-- Created with Inkscape (http://www.inkscape.org/) -->

<svg
   xmlns:dc="http://purl.org/dc/elements/1.1/"
   xmlns:cc="http://creativecommons.org/ns#"
   xmlns:rdf="http://www.w3.org/1999/02/22-rdf-syntax-ns#"
   xmlns:svg="http://www.w3.org/2000/svg"
   xmlns="http://www.w3.org/2000/svg"
   xmlns:sodipodi="http://sodipodi.sourceforge.net/DTD/sodipodi-0.dtd"
   xmlns:inkscape="http://www.inkscape.org/namespaces/inkscape"
   width="100.98581mm"
   height="37.246227mm"
   viewBox="0 0 100.98581 37.246227"
   version="1.1"
   id="svg689"
   inkscape:version="0.92.2 (5c3e80d, 2017-08-06)"
   sodipodi:docname="scaling3.svg">
  <defs
     id="defs683" />
  <sodipodi:namedview
     id="base"
     pagecolor="#ffffff"
     bordercolor="#666666"
     borderopacity="1.0"
     inkscape:pageopacity="0.0"
     inkscape:pageshadow="2"
     inkscape:zoom="1.4"
     inkscape:cx="296.35094"
     inkscape:cy="55.804021"
     inkscape:document-units="mm"
     inkscape:current-layer="layer1"
     showgrid="false"
     fit-margin-top="0"
     fit-margin-left="0"
     fit-margin-right="0"
     fit-margin-bottom="0"
     inkscape:window-width="1366"
     inkscape:window-height="705"
     inkscape:window-x="-8"
     inkscape:window-y="-8"
     inkscape:window-maximized="1" />
  <metadata
     id="metadata686">
    <rdf:RDF>
      <cc:Work
         rdf:about="">
        <dc:format>image/svg+xml</dc:format>
        <dc:type
           rdf:resource="http://purl.org/dc/dcmitype/StillImage" />
        <dc:title></dc:title>
      </cc:Work>
    </rdf:RDF>
  </metadata>
  <g
     inkscape:label="Layer 1"
     inkscape:groupmode="layer"
     id="layer1"
     transform="translate(79.219095,-24.376886)">
    <path
       d="m -53.290282,35.755719 0.02046,-6.91903"
       style="fill:none;stroke:#000000;stroke-width:0.17039166;stroke-linecap:butt;stroke-linejoin:round;stroke-miterlimit:10;stroke-dasharray:none;stroke-opacity:1"
       id="path150"
       inkscape:connector-curvature="0" />
    <path
       d="m -53.86284,28.254253 0.07161,-0.265642 0.173919,-0.19438 0.23495,-0.09172 h 0.245181 l 0.245533,0.09172 0.183798,0.19438 0.04092,0.265642 -0.04092,0.245181 -0.183798,0.204611 -0.245533,0.08149 h -0.245181 l -0.23495,-0.08149 -0.173919,-0.204611 -0.07161,-0.245181"
       style="fill:#000000;fill-opacity:1;fill-rule:evenodd;stroke:none;stroke-width:0.35277775"
       id="path152"
       inkscape:connector-curvature="0" />
    <path
       d="m -53.86284,28.254253 0.07161,-0.265642 0.173919,-0.19438 0.23495,-0.09172 h 0.245181 l 0.245533,0.09172 0.183798,0.19438 0.04092,0.265642 -0.04092,0.245181 -0.183798,0.204611 -0.245533,0.08149 h -0.245181 l -0.23495,-0.08149 -0.173919,-0.204611 z"
       style="fill:none;stroke:#000000;stroke-width:0.04268611;stroke-linecap:round;stroke-linejoin:round;stroke-miterlimit:10;stroke-dasharray:none;stroke-opacity:1"
       id="path154"
       inkscape:connector-curvature="0" />
    <path
       d="M -75.130754,37.646608 V 28.959456"
       style="fill:none;stroke:#000000;stroke-width:0.17039166;stroke-linecap:butt;stroke-linejoin:round;stroke-miterlimit:10;stroke-dasharray:none;stroke-opacity:1"
       id="path156"
       inkscape:connector-curvature="0" />
    <path
       d="m -75.754112,28.6222 0.06103,-0.24518 0.18415,-0.194381 0.194028,-0.132644 h 0.275872 l 0.235303,0.132644 0.153106,0.194381 0.07161,0.24518 -0.07161,0.22472 -0.153106,0.19438 -0.235303,0.112184 h -0.275872 l -0.194028,-0.112184 -0.18415,-0.19438 -0.06103,-0.22472"
       style="fill:#000000;fill-opacity:1;fill-rule:evenodd;stroke:none;stroke-width:0.35277775"
       id="path158"
       inkscape:connector-curvature="0" />
    <path
       d="m -75.754112,28.6222 0.06103,-0.24518 0.18415,-0.194381 0.194028,-0.132644 h 0.275872 l 0.235303,0.132644 0.153106,0.194381 0.07161,0.24518 -0.07161,0.22472 -0.153106,0.19438 -0.235303,0.112184 h -0.275872 l -0.194028,-0.112184 -0.18415,-0.19438 z"
       style="fill:none;stroke:#000000;stroke-width:0.04268611;stroke-linecap:round;stroke-linejoin:round;stroke-miterlimit:10;stroke-dasharray:none;stroke-opacity:1"
       id="path160"
       inkscape:connector-curvature="0" />
    <path
       d="m -29.140175,37.759144 v -8.60566"
       style="fill:none;stroke:#000000;stroke-width:0.17039166;stroke-linecap:butt;stroke-linejoin:round;stroke-miterlimit:10;stroke-dasharray:none;stroke-opacity:1"
       id="path162"
       inkscape:connector-curvature="0" />
    <path
       d="m -29.712378,28.6222 0.05115,-0.24518 0.183798,-0.194381 0.194378,-0.132644 h 0.275874 l 0.23495,0.132644 0.153458,0.194381 0.05115,0.24518 -0.05115,0.22472 -0.153458,0.19438 -0.23495,0.112184 h -0.275872 l -0.194378,-0.112184 -0.183798,-0.19438 -0.05115,-0.22472"
       style="fill:#000000;fill-opacity:1;fill-rule:evenodd;stroke:none;stroke-width:0.35277775"
       id="path164"
       inkscape:connector-curvature="0" />
    <path
       d="m -29.712378,28.6222 0.05115,-0.24518 0.183798,-0.194381 0.194378,-0.132644 h 0.275874 l 0.23495,0.132644 0.153458,0.194381 0.05115,0.24518 -0.05115,0.22472 -0.153458,0.19438 -0.23495,0.112184 h -0.275872 l -0.194378,-0.112184 -0.183798,-0.19438 z"
       style="fill:none;stroke:#000000;stroke-width:0.04268611;stroke-linecap:round;stroke-linejoin:round;stroke-miterlimit:10;stroke-dasharray:none;stroke-opacity:1"
       id="path166"
       inkscape:connector-curvature="0" />
    <path
       d="m -53.290282,58.475312 0.02046,-1.277409"
       style="fill:none;stroke:#000000;stroke-width:0.17039166;stroke-linecap:butt;stroke-linejoin:round;stroke-miterlimit:10;stroke-dasharray:none;stroke-opacity:1"
       id="path168"
       inkscape:connector-curvature="0" />
    <path
       d="m -53.882948,57.800802 0.07126,-0.21449 0.163689,-0.194379 0.24518,-0.132998 h 0.235303 l 0.23495,0.132998 0.183797,0.194379 0.04092,0.21449 -0.04092,0.23495 -0.183797,0.20461 -0.23495,0.08149 h -0.235303 l -0.24518,-0.08149 -0.163689,-0.20461 -0.07126,-0.23495"
       style="fill:#000000;fill-opacity:1;fill-rule:evenodd;stroke:none;stroke-width:0.35277775"
       id="path170"
       inkscape:connector-curvature="0" />
    <path
       d="m -53.882948,57.800802 0.07126,-0.21449 0.163689,-0.194379 0.24518,-0.132998 h 0.235303 l 0.23495,0.132998 0.183797,0.194379 0.04092,0.21449 -0.04092,0.23495 -0.183797,0.20461 -0.23495,0.08149 h -0.235303 l -0.24518,-0.08149 -0.163689,-0.20461 z"
       style="fill:none;stroke:#000000;stroke-width:0.04268611;stroke-linecap:round;stroke-linejoin:round;stroke-miterlimit:10;stroke-dasharray:none;stroke-opacity:1"
       id="path172"
       inkscape:connector-curvature="0" />
    <text
       y="61.623112"
       x="-54.199955"
       style="font-variant:normal;font-weight:normal;font-size:2.72877121px;font-family:Arial;-inkscape-font-specification:Arial;writing-mode:lr-tb;fill:#000000;fill-opacity:1;fill-rule:nonzero;stroke:none;stroke-width:0.35277775"
       id="text176">
      <tspan
         style="stroke-width:0.35277775"
         x="-54.199955"
         y="61.623112"
         id="tspan174">B</tspan>
    </text>
    <path
       d="M -25.930956,37.667069 V 53.508202 H -79.219095 V 37.667069 Z"
       style="fill:#33cc33;fill-opacity:1;fill-rule:nonzero;stroke:none;stroke-width:0.35277775"
       id="path178"
       inkscape:connector-curvature="0" />
    <path
       d="m -40.617445,35.755719 v 1.910997 h -23.70067 v -1.910997 z"
       style="fill:#ffffff;fill-opacity:1;fill-rule:nonzero;stroke:none;stroke-width:0.35277775"
       id="path180"
       inkscape:connector-curvature="0" />
    <path
       d="m -64.317762,35.755719 v 1.910997 h 23.700669 v -1.910997 z"
       style="fill:none;stroke:#000000;stroke-width:0.17039166;stroke-linecap:round;stroke-linejoin:miter;stroke-miterlimit:8;stroke-dasharray:none;stroke-opacity:1"
       id="path182"
       inkscape:connector-curvature="0" />
    <path
       d="m -40.617445,31.391858 v 4.363861 h -23.70067 v -4.363861 z"
       style="fill:#ff3300;fill-opacity:1;fill-rule:nonzero;stroke:none;stroke-width:0.35277775"
       id="path184"
       inkscape:connector-curvature="0" />
    <text
       y="27.365076"
       x="-75.815605"
       style="font-variant:normal;font-weight:normal;font-size:2.72877121px;font-family:Arial;-inkscape-font-specification:Arial;writing-mode:lr-tb;fill:#000000;fill-opacity:1;fill-rule:nonzero;stroke:none;stroke-width:0.35277775"
       id="text188">
      <tspan
         style="stroke-width:0.35277775"
         x="-75.815605"
         y="27.365076"
         id="tspan186">D</tspan>
    </text>
    <path
       d="m -79.219095,37.68753 0.07161,5.917494 10.465506,-0.06138 c 2.422172,-0.214489 3.188758,-0.643819 4.067528,-1.226255 0.889353,-0.582789 0.920044,-1.48202 1.154994,-2.258836 0.22472,-0.970845 0.265642,-1.890889 0.337256,-2.391481"
       style="fill:#339966;fill-opacity:1;fill-rule:evenodd;stroke:none;stroke-width:0.35277775"
       id="path190"
       inkscape:connector-curvature="0" />
    <path
       d="m -25.951416,37.68753 -0.07162,5.917494 -10.475381,-0.06138 c -2.42252,-0.214492 -3.198984,-0.643822 -4.078108,-1.226258 -0.878768,-0.582789 -0.919691,-1.48202 -1.154641,-2.258836 -0.225071,-0.970845 -0.265994,-1.890889 -0.337254,-2.391481"
       style="fill:#339966;fill-opacity:1;fill-rule:evenodd;stroke:none;stroke-width:0.35277775"
       id="path192"
       inkscape:connector-curvature="0" />
    <text
       y="26.363506"
       x="-54.199955"
       style="font-variant:normal;font-weight:normal;font-size:2.72877121px;font-family:Arial;-inkscape-font-specification:Arial;writing-mode:lr-tb;fill:#000000;fill-opacity:1;fill-rule:nonzero;stroke:none;stroke-width:0.35277775"
       id="text198">
      <tspan
         style="stroke-width:0.35277775"
         x="-54.199955"
         y="26.363506"
         id="tspan194">G</tspan>
      <tspan
         style="stroke-width:0.35277775"
         x="-29.988382"
         y="27.3445"
         id="tspan196">S</tspan>
    </text>
    <path
       d="m -53.413048,53.273252 v 4.96711"
       style="fill:none;stroke:#000000;stroke-width:0.12770554;stroke-linecap:round;stroke-linejoin:round;stroke-miterlimit:10;stroke-dasharray:none;stroke-opacity:1"
       id="path200"
       inkscape:connector-curvature="0" />
    <path
       d="M 7.1211485,39.435191 V 34.917872"
       style="fill:none;stroke:#000000;stroke-width:0.17039166;stroke-linecap:butt;stroke-linejoin:round;stroke-miterlimit:10;stroke-dasharray:none;stroke-opacity:1"
       id="path202"
       inkscape:connector-curvature="0" />
    <path
       d="m 6.7941235,34.539694 0.04092,-0.173919 0.09207,-0.132644 0.132646,-0.05115 h 0.132996 l 0.122414,0.05115 0.102307,0.132644 0.02045,0.173919 -0.02045,0.153106 -0.102307,0.132997 -0.122414,0.05115 h -0.132991 l -0.132646,-0.05115 -0.09207,-0.132997 -0.04092,-0.153106"
       style="fill:#000000;fill-opacity:1;fill-rule:evenodd;stroke:none;stroke-width:0.35277775"
       id="path204"
       inkscape:connector-curvature="0" />
    <path
       d="m 6.7941235,34.539694 0.04092,-0.173919 0.09207,-0.132644 0.132646,-0.05115 h 0.132996 l 0.122414,0.05115 0.102307,0.132644 0.02045,0.173919 -0.02045,0.153106 -0.102307,0.132997 -0.122414,0.05115 h -0.132991 l -0.132646,-0.05115 -0.09207,-0.132997 z"
       style="fill:none;stroke:#000000;stroke-width:0.04268611;stroke-linecap:round;stroke-linejoin:round;stroke-miterlimit:10;stroke-dasharray:none;stroke-opacity:1"
       id="path206"
       inkscape:connector-curvature="0" />
    <path
       d="M -4.5910755,40.671677 V 34.989486"
       style="fill:none;stroke:#000000;stroke-width:0.17039166;stroke-linecap:butt;stroke-linejoin:round;stroke-miterlimit:10;stroke-dasharray:none;stroke-opacity:1"
       id="path208"
       inkscape:connector-curvature="0" />
    <path
       d="m -4.9078685,34.764414 0.02045,-0.153106 0.101952,-0.132997 0.102307,-0.09208 h 0.143226 l 0.132647,0.09208 0.07161,0.132997 0.04092,0.153106 -0.04092,0.143227 -0.07161,0.132645 -0.132647,0.07161 h -0.143226 l -0.102307,-0.07161 -0.101952,-0.132645 -0.02045,-0.143227"
       style="fill:#000000;fill-opacity:1;fill-rule:evenodd;stroke:none;stroke-width:0.35277775"
       id="path210"
       inkscape:connector-curvature="0" />
    <path
       d="m -4.9078685,34.764414 0.02045,-0.153106 0.101952,-0.132997 0.102307,-0.09208 h 0.143226 l 0.132647,0.09208 0.07161,0.132997 0.04092,0.153106 -0.04092,0.143227 -0.07161,0.132645 -0.132647,0.07161 h -0.143224 l -0.102307,-0.07161 -0.101952,-0.132645 z"
       style="fill:none;stroke:#000000;stroke-width:0.04268611;stroke-linecap:round;stroke-linejoin:round;stroke-miterlimit:10;stroke-dasharray:none;stroke-opacity:1"
       id="path212"
       inkscape:connector-curvature="0" />
    <path
       d="M 20.039517,40.753522 V 35.1119"
       style="fill:none;stroke:#000000;stroke-width:0.17039166;stroke-linecap:butt;stroke-linejoin:round;stroke-miterlimit:10;stroke-dasharray:none;stroke-opacity:1"
       id="path214"
       inkscape:connector-curvature="0" />
    <path
       d="m 19.743184,34.764414 0.03069,-0.153106 0.101952,-0.132997 0.102307,-0.09208 h 0.153458 l 0.122412,0.09208 0.08185,0.132997 0.03069,0.153106 -0.03069,0.143227 -0.08185,0.132645 -0.122412,0.07161 h -0.153457 l -0.102307,-0.07161 -0.101952,-0.132645 -0.03069,-0.143227"
       style="fill:#000000;fill-opacity:1;fill-rule:evenodd;stroke:none;stroke-width:0.35277775"
       id="path216"
       inkscape:connector-curvature="0" />
    <path
       d="m 19.743184,34.764414 0.03069,-0.153106 0.101952,-0.132997 0.102307,-0.09208 h 0.153458 l 0.122412,0.09208 0.08185,0.132997 0.03069,0.153106 -0.03069,0.143227 -0.08185,0.132645 -0.122412,0.07161 h -0.153457 l -0.102307,-0.07161 -0.101952,-0.132645 z"
       style="fill:none;stroke:#000000;stroke-width:0.04268611;stroke-linecap:round;stroke-linejoin:round;stroke-miterlimit:10;stroke-dasharray:none;stroke-opacity:1"
       id="path218"
       inkscape:connector-curvature="0" />
    <path
       d="M 7.1211485,54.31571 V 53.467278"
       style="fill:none;stroke:#000000;stroke-width:0.17039166;stroke-linecap:butt;stroke-linejoin:round;stroke-miterlimit:10;stroke-dasharray:none;stroke-opacity:1"
       id="path220"
       inkscape:connector-curvature="0" />
    <path
       d="m 6.7941235,53.865918 0.04092,-0.142875 0.09207,-0.122766 0.122415,-0.09207 h 0.122766 l 0.132644,0.09207 0.09207,0.122766 0.02045,0.142875 -0.02045,0.16369 -0.09207,0.122412 -0.132644,0.06138 h -0.122766 l -0.122415,-0.06138 -0.09207,-0.122412 -0.04092,-0.16369"
       style="fill:#000000;fill-opacity:1;fill-rule:evenodd;stroke:none;stroke-width:0.35277775"
       id="path222"
       inkscape:connector-curvature="0" />
    <path
       d="m 6.7941235,53.865918 0.04092,-0.142875 0.09207,-0.122766 0.122415,-0.09207 h 0.122766 l 0.132644,0.09207 0.09207,0.122766 0.02045,0.142875 -0.02045,0.16369 -0.09207,0.122412 -0.132644,0.06138 h -0.122766 l -0.122415,-0.06138 -0.09207,-0.122412 z"
       style="fill:none;stroke:#000000;stroke-width:0.04268611;stroke-linecap:round;stroke-linejoin:round;stroke-miterlimit:10;stroke-dasharray:none;stroke-opacity:1"
       id="path224"
       inkscape:connector-curvature="0" />
    <text
       y="57.47374"
       x="7.2028785"
       style="font-variant:normal;font-weight:normal;font-size:2.72877121px;font-family:Arial;-inkscape-font-specification:Arial;writing-mode:lr-tb;fill:#000000;fill-opacity:1;fill-rule:nonzero;stroke:none;stroke-width:0.35277775"
       id="text228">
      <tspan
         style="stroke-width:0.35277775"
         x="7.2028785"
         y="57.47374"
         id="tspan226">B</tspan>
    </text>
    <path
       d="m 21.766715,40.692138 v 10.37343 H -6.7885265 v -10.37343 z"
       style="fill:#33cc33;fill-opacity:1;fill-rule:nonzero;stroke:none;stroke-width:0.35277775"
       id="path230"
       inkscape:connector-curvature="0" />
    <path
       d="m 13.887071,39.435191 v 1.256947 H 1.2036515 v -1.256947 z"
       style="fill:#ffffff;fill-opacity:1;fill-rule:nonzero;stroke:none;stroke-width:0.35277775"
       id="path232"
       inkscape:connector-curvature="0" />
    <path
       d="m 1.2036515,39.435191 v 1.256947 H 13.887071 v -1.256947 z"
       style="fill:none;stroke:#000000;stroke-width:0.17039166;stroke-linecap:round;stroke-linejoin:miter;stroke-miterlimit:8;stroke-dasharray:none;stroke-opacity:1"
       id="path234"
       inkscape:connector-curvature="0" />
    <path
       d="m 13.887071,36.583689 v 2.851502 H 1.2036515 v -2.851502 z"
       style="fill:#ff3300;fill-opacity:1;fill-rule:nonzero;stroke:none;stroke-width:0.35277775"
       id="path236"
       inkscape:connector-curvature="0" />
    <text
       y="33.139484"
       x="-6.5330148"
       style="font-variant:normal;font-weight:normal;font-size:2.72877121px;font-family:Arial;-inkscape-font-specification:Arial;writing-mode:lr-tb;fill:#000000;fill-opacity:1;fill-rule:nonzero;stroke:none;stroke-width:0.35277775"
       id="text240">
      <tspan
         style="stroke-width:0.35277775"
         x="-6.5330148"
         y="33.139484"
         id="tspan238">D</tspan>
    </text>
    <path
       d="m -6.7885265,40.702369 0.04092,3.88373 5.610931,-0.04092 c 1.29786902,-0.143228 1.70674002,-0.4191 2.176992,-0.807508 0.4699,-0.377825 0.49036,-0.970845 0.623358,-1.481667 0.112184,-0.633589 0.132644,-1.236839 0.173567,-1.563864"
       style="fill:#339966;fill-opacity:1;fill-rule:evenodd;stroke:none;stroke-width:0.35277775"
       id="path242"
       inkscape:connector-curvature="0" />
    <path
       d="m 21.746255,40.702369 -0.0409,3.88373 -5.600701,-0.04092 c -1.297871,-0.143228 -1.716971,-0.4191 -2.187223,-0.807508 -0.4699,-0.377825 -0.490361,-0.970845 -0.613127,-1.481667 -0.122415,-0.633589 -0.142875,-1.236839 -0.183798,-1.563864"
       style="fill:#339966;fill-opacity:1;fill-rule:evenodd;stroke:none;stroke-width:0.35277775"
       id="path244"
       inkscape:connector-curvature="0" />
    <text
       y="35.081314"
       x="7.1824622"
       style="font-variant:normal;font-weight:normal;font-size:2.72877121px;font-family:Arial;-inkscape-font-specification:Arial;writing-mode:lr-tb;fill:#000000;fill-opacity:1;fill-rule:nonzero;stroke:none;stroke-width:0.35277775"
       id="text250">
      <tspan
         style="stroke-width:0.35277775"
         x="18.598272"
         y="33.139519"
         id="tspan248">S</tspan>
    </text>
    <path
       d="M 7.0290735,50.912464 V 54.15202"
       style="fill:none;stroke:#000000;stroke-width:0.12770554;stroke-linecap:round;stroke-linejoin:round;stroke-miterlimit:10;stroke-dasharray:none;stroke-opacity:1"
       id="path252"
       inkscape:connector-curvature="0" />
    <text
       y="32.178799"
       x="6.0377936"
       style="font-variant:normal;font-weight:normal;font-size:2.72877121px;font-family:Arial;-inkscape-font-specification:Arial;writing-mode:lr-tb;fill:#000000;fill-opacity:1;fill-rule:nonzero;stroke:none;stroke-width:0.35277775"
       id="text256">
      <tspan
         style="stroke-width:0.35277775"
         x="6.0377936"
         y="32.178799"
         id="tspan254">G</tspan>
    </text>
    <path
       d="m -14.17781,43.819513 v 1.021997 h -8.063796 v -1.021997 z m -0.510823,-1.021997 3.065992,1.533172 -3.065992,1.53282"
       style="fill:#ff0000;fill-opacity:1;fill-rule:nonzero;stroke:none;stroke-width:0.35277775"
       id="path258"
       inkscape:connector-curvature="0" />
    <text
       y="41.090778"
       x="-18.112482"
       style="font-variant:normal;font-weight:normal;font-size:3.06606221px;font-family:Arial;-inkscape-font-specification:Arial;writing-mode:lr-tb;fill:#000000;fill-opacity:1;fill-rule:nonzero;stroke:none;stroke-width:0.35277775"
       id="text262">
      <tspan
         style="stroke-width:0.35277775"
         x="-18.112482"
         y="41.090778"
         id="tspan260">S</tspan>
    </text>
  </g>
</svg>
