<?xml version="1.0" encoding="UTF-8" standalone="no"?>
<!-- Created with Inkscape (http://www.inkscape.org/) -->

<svg
   xmlns:dc="http://purl.org/dc/elements/1.1/"
   xmlns:cc="http://creativecommons.org/ns#"
   xmlns:rdf="http://www.w3.org/1999/02/22-rdf-syntax-ns#"
   xmlns:svg="http://www.w3.org/2000/svg"
   xmlns="http://www.w3.org/2000/svg"
   xmlns:sodipodi="http://sodipodi.sourceforge.net/DTD/sodipodi-0.dtd"
   xmlns:inkscape="http://www.inkscape.org/namespaces/inkscape"
   width="51.095936mm"
   height="14.975848mm"
   viewBox="0 0 51.095936 14.975848"
   version="1.1"
   id="svg1065"
   inkscape:version="0.92.2 (5c3e80d, 2017-08-06)"
   sodipodi:docname="resist.svg">
  <defs
     id="defs1059" />
  <sodipodi:namedview
     id="base"
     pagecolor="#ffffff"
     bordercolor="#666666"
     borderopacity="1.0"
     inkscape:pageopacity="0.0"
     inkscape:pageshadow="2"
     inkscape:zoom="0.35"
     inkscape:cx="602.27353"
     inkscape:cy="-254.55633"
     inkscape:document-units="mm"
     inkscape:current-layer="layer1"
     showgrid="false"
     fit-margin-top="0"
     fit-margin-left="0"
     fit-margin-right="0"
     fit-margin-bottom="0"
     inkscape:window-width="1366"
     inkscape:window-height="705"
     inkscape:window-x="-8"
     inkscape:window-y="-8"
     inkscape:window-maximized="1" />
  <metadata
     id="metadata1062">
    <rdf:RDF>
      <cc:Work
         rdf:about="">
        <dc:format>image/svg+xml</dc:format>
        <dc:type
           rdf:resource="http://purl.org/dc/dcmitype/StillImage" />
        <dc:title></dc:title>
      </cc:Work>
    </rdf:RDF>
  </metadata>
  <g
     inkscape:label="Layer 1"
     inkscape:groupmode="layer"
     id="layer1"
     transform="translate(53.518206,-66.506123)">
    <path
       d="m -44.077442,66.570621 -2.299758,2.299758 v 6.898569 h 34.493198 l 2.2994073,-2.299405 v -6.898922"
       style="fill:#ffffff;fill-opacity:1;fill-rule:evenodd;stroke:none;stroke-width:0.35277775"
       id="path863"
       inkscape:connector-curvature="0" />
    <path
       d="m -46.3772,68.870379 h 34.493198 l 2.2994073,-2.299758 H -44.077442"
       style="fill:#ffffff;fill-opacity:1;fill-rule:evenodd;stroke:none;stroke-width:0.35277775"
       id="path865"
       inkscape:connector-curvature="0" />
    <path
       d="m -11.884002,68.870379 2.2994073,-2.299758 v 6.898922 l -2.2994073,2.299405"
       style="fill:#cdcdcd;fill-opacity:1;fill-rule:evenodd;stroke:none;stroke-width:0.35277775"
       id="path867"
       inkscape:connector-curvature="0" />
    <path
       d="m -44.077442,66.570621 -2.299758,2.299758 v 6.898569 h 34.493198 l 2.2994073,-2.299405 v -6.898922 z m -2.299758,2.299758 h 34.493198 l 2.2994073,-2.299758 m -2.2994073,2.299758 v 6.898569"
       style="fill:none;stroke:#000000;stroke-width:0.12770554;stroke-linecap:round;stroke-linejoin:round;stroke-miterlimit:10;stroke-dasharray:none;stroke-opacity:1"
       id="path869"
       inkscape:connector-curvature="0" />
    <path
       d="m -45.52877,77.751559 h 33.052102 l 0.04092,0.02046 0.02045,0.04092 -0.02045,0.05115 -0.04092,0.02046 H -45.52877 l -0.04092,-0.02046 -0.02046,-0.05115 0.02046,-0.04092 z m 0.173567,0.572559 -1.021997,-0.511175 1.021997,-0.511175 z m 32.704616,-1.02235 1.021998,0.511175 -1.021998,0.511175"
       style="fill:#000000;fill-opacity:1;fill-rule:nonzero;stroke:none;stroke-width:0.35277775"
       id="path871"
       inkscape:connector-curvature="0" />
    <text
       y="81.481972"
       x="-30.83219"
       style="font-variant:normal;font-weight:normal;font-size:3.06606221px;font-family:Arial;-inkscape-font-specification:Arial;writing-mode:lr-tb;fill:#000000;fill-opacity:1;fill-rule:nonzero;stroke:none;stroke-width:0.35277775"
       id="text875">
      <tspan
         style="stroke-width:0.35277775"
         x="-30.83219"
         y="81.481972"
         id="tspan873">L</tspan>
    </text>
    <path
       d="m -49.381808,69.473276 v 5.447242 l -0.02046,0.05115 -0.04092,0.01023 -0.04092,-0.01023 -0.02046,-0.05115 v -5.447242 l 0.02046,-0.05115 0.04092,-0.01023 0.04092,0.01023 z m -0.572206,0.163689 0.510822,-1.02235 0.511175,1.02235 z m 1.021997,5.109986 -0.511175,1.021997 -0.510822,-1.021997"
       style="fill:#000000;fill-opacity:1;fill-rule:nonzero;stroke:none;stroke-width:0.35277775"
       id="path877"
       inkscape:connector-curvature="0" />
    <text
       y="73.234306"
       x="-53.572102"
       style="font-variant:normal;font-weight:normal;font-size:3.06606221px;font-family:Arial;-inkscape-font-specification:Arial;writing-mode:lr-tb;fill:#000000;fill-opacity:1;fill-rule:nonzero;stroke:none;stroke-width:0.35277775"
       id="text881">
      <tspan
         style="stroke-width:0.35277775"
         x="-53.572102"
         y="73.234306"
         id="tspan879">t</tspan>
    </text>
    <path
       d="m -10.14657,77.097509 2.0439933,-2.728736 0.04092,-0.02046 0.05115,0.01023 0.02045,0.04092 -0.01024,0.05115 -2.0439933,2.728737 -0.04092,0.02046 -0.05115,-0.01023 -0.02045,-0.04092 z m 0.5619753,0.204259 -1.0219983,0.511175 0.204612,-1.124303 z m 1.02235,-3.065992 1.021998,-0.510822 -0.204613,1.124303"
       style="fill:#000000;fill-opacity:1;fill-rule:nonzero;stroke:none;stroke-width:0.35277775"
       id="path883"
       inkscape:connector-curvature="0" />
    <text
       y="77.322372"
       x="-5.2817307"
       style="font-variant:normal;font-weight:normal;font-size:3.06606221px;font-family:Arial;-inkscape-font-specification:Arial;writing-mode:lr-tb;fill:#000000;fill-opacity:1;fill-rule:nonzero;stroke:none;stroke-width:0.35277775"
       id="text891">
      <tspan
         style="stroke-width:0.35277775"
         x="-5.2817307"
         sodipodi:role="line"
         id="tspan889"
         y="77.322372">W</tspan>
    </text>
  </g>
</svg>
