<svg width="445" height="303" xmlns="http://www.w3.org/2000/svg" xmlns:xlink="http://www.w3.org/1999/xlink" xml:space="preserve" overflow="hidden"><g transform="translate(-180 -326)"><path d="M190.863 149.891 433.905 149.891" stroke="#656565" stroke-width="1.62264" fill="none" transform="matrix(1 0 0 1.00127 180 326.042)"/><path d="M3.85376 149.891 98.3723 149.891" stroke="#656565" stroke-width="1.62264" fill="none" transform="matrix(1 0 0 1.00127 180 326.042)"/><path d="M89.4478 149.891 183.966 149.891" stroke="#656565" stroke-width="1.62264" stroke-dasharray="9.73582 8.11318" fill="none" transform="matrix(1 0 0 1.00127 180 326.042)"/><path d="M249.665 3.85376 249.665 295.928" stroke="#656565" stroke-width="1.62264" fill="none" transform="matrix(1 0 0 1.00127 180 326.042)"/><path d="M249.665 149.891C396.147 149.39 392.824 78.9956 423.914 3.85376" stroke="#DE787A" stroke-width="1.62264" fill="none" transform="matrix(1 0 0 1.00127 180 326.042)"/><path d="M249.665 149.891C352.156 149.4 349.831 80.4175 371.584 6.78222" stroke="#8EA5C5" stroke-width="1.62264" fill="none" transform="matrix(1 0 0 1.00127 180 326.042)"/><path d="M249.665 149.891C245.591 153.136 46.7964 154.759 46.7964 154.759" stroke="#DE787A" stroke-width="1.62264" fill="none" transform="matrix(1 0 0 1.00127 180 326.042)"/><path d="M249.665 149.891C246.21 161.52 77.6265 167.334 77.6265 167.334" stroke="#8EA5C5" stroke-width="1.62264" fill="none" transform="matrix(1 0 0 1.00127 180 326.042)"/><path d="M46.7964 154.764C25.2965 154.359 30.9757 177.887 20.0229 299.084" stroke="#DE787A" stroke-width="1.62264" fill="none" transform="matrix(1 0 0 1.00127 180 326.042)"/><path d="M77.6265 167.339C56.1266 166.997 61.8058 186.822 50.853 288.942" stroke="#8EA5C5" stroke-width="1.62264" fill="none" transform="matrix(1 0 0 1.00127 180 326.042)"/><text fill="#656565" font-family="Arial,Arial_MSFontService,sans-serif" font-weight="400" font-size="36" transform="matrix(0.405659 0 0 0.406174 573.968 426)">PN</text><text font-family="Arial,Arial_MSFontService,sans-serif" font-weight="400" font-size="12" transform="matrix(0.405659 0 0 0.406174 594.251 426)"> </text><text fill="#656565" font-family="Arial,Arial_MSFontService,sans-serif" font-weight="400" font-size="36" transform="matrix(0.405659 0 0 0.406174 565.037 446)">diode</text><text fill="#656565" font-family="Arial,Arial_MSFontService,sans-serif" font-weight="400" font-size="36" transform="matrix(0.405659 0 0 0.406174 481.73 364)">Schottky </text><text fill="#656565" font-family="Arial,Arial_MSFontService,sans-serif" font-weight="400" font-size="36" transform="matrix(0.405659 0 0 0.406174 491.478 384)">diode</text><text fill="#656565" font-family="Arial,Arial_MSFontService,sans-serif" font-weight="400" font-size="36" transform="matrix(0.405659 0 0 0.406174 562.89 495)">Voltage</text><text fill="#656565" font-family="Arial,Arial_MSFontService,sans-serif" font-weight="400" font-size="36" transform="matrix(0 -0.406174 0.405659 0 420.899 395)">Current</text><path d="M190.863 152.147 97.3241 153.745" stroke="#FFFFFF" stroke-width="1.21698" stroke-dasharray="12.1698 8.51884" fill="none" transform="matrix(1 0 0 1.00127 180 326.042)"/><path d="M190.863 153.161 97.3241 154.759" stroke="#FFFFFF" stroke-width="1.21698" stroke-dasharray="12.1698 8.51884" fill="none" transform="matrix(1 0 0 1.00127 180 326.042)"/><path d="M190.863 160.463 97.3241 166.308" stroke="#FFFFFF" stroke-width="1.21698" stroke-dasharray="12.1698 8.51884" fill="none" transform="matrix(1 0 0 1.00127 180 326.042)"/><path d="M190.863 161.714 97.3241 167.334" stroke="#FFFFFF" stroke-width="1.21698" stroke-dasharray="12.1698 8.51884" fill="none" transform="matrix(1 0 0 1.00127 180 326.042)"/></g></svg>