<?xml version="1.0" encoding="UTF-8" standalone="no"?>
<!-- Created with Inkscape (http://www.inkscape.org/) -->

<svg
   xmlns:dc="http://purl.org/dc/elements/1.1/"
   xmlns:cc="http://creativecommons.org/ns#"
   xmlns:rdf="http://www.w3.org/1999/02/22-rdf-syntax-ns#"
   xmlns:svg="http://www.w3.org/2000/svg"
   xmlns="http://www.w3.org/2000/svg"
   xmlns:sodipodi="http://sodipodi.sourceforge.net/DTD/sodipodi-0.dtd"
   xmlns:inkscape="http://www.inkscape.org/namespaces/inkscape"
   width="81.998352mm"
   height="34.417839mm"
   viewBox="0 0 81.998352 34.417839"
   version="1.1"
   id="svg6029"
   inkscape:version="0.92.3 (2405546, 2018-03-11)"
   sodipodi:docname="DRAM.svg">
  <defs
     id="defs6023" />
  <sodipodi:namedview
     id="base"
     pagecolor="#ffffff"
     bordercolor="#666666"
     borderopacity="1.0"
     inkscape:pageopacity="0.0"
     inkscape:pageshadow="2"
     inkscape:zoom="0.35"
     inkscape:cx="534.95751"
     inkscape:cy="-72.101271"
     inkscape:document-units="mm"
     inkscape:current-layer="layer1"
     showgrid="false"
     fit-margin-top="0"
     fit-margin-left="0"
     fit-margin-right="0"
     fit-margin-bottom="0"
     inkscape:window-width="1366"
     inkscape:window-height="705"
     inkscape:window-x="-8"
     inkscape:window-y="-8"
     inkscape:window-maximized="1" />
  <metadata
     id="metadata6026">
    <rdf:RDF>
      <cc:Work
         rdf:about="">
        <dc:format>image/svg+xml</dc:format>
        <dc:type
           rdf:resource="http://purl.org/dc/dcmitype/StillImage" />
        <dc:title></dc:title>
      </cc:Work>
    </rdf:RDF>
  </metadata>
  <g
     inkscape:label="Layer 1"
     inkscape:groupmode="layer"
     id="layer1"
     transform="translate(35.707509,-95.3387)">
    <path
       d="m 12.015562,101.4052 v 0.14323 h -37.692187 v -0.14323 z"
       style="fill:#25221e;fill-opacity:1;fill-rule:nonzero;stroke:none;stroke-width:0.35277775"
       id="path5312"
       inkscape:connector-curvature="0" />
    <path
       d="m -30.633153,100.38321 v 16.82256 h -0.173567 v -16.82256 z"
       style="fill:#25221e;fill-opacity:1;fill-rule:nonzero;stroke:none;stroke-width:0.35277775"
       id="path5314"
       inkscape:connector-curvature="0" />
    <path
       d="m -30.725228,108.32424 v 0 l 0.09208,0.0818 h 0.08149 v 0.0614 h 0.06138 v 0.0917 l 0.09208,0.0818 v 0.0614 h -0.153458 v -0.0614 h -0.08149 v -0.0818 h -0.09208 v -0.23495"
       style="fill:#25221e;fill-opacity:1;fill-rule:evenodd;stroke:none;stroke-width:0.35277775"
       id="path5316"
       inkscape:connector-curvature="0" />
    <path
       d="m -31.103406,108.70241 v 0 l 0.06138,-0.0614 v -0.17356 h 0.08149 v -0.0614 h 0.09208 l 0.06138,-0.0818 h 0.08184 v 0.23495 h -0.143227 v 0.14322 h -0.23495"
       style="fill:#25221e;fill-opacity:1;fill-rule:evenodd;stroke:none;stroke-width:0.35277775"
       id="path5318"
       inkscape:connector-curvature="0" />
    <path
       d="m -30.725228,109.02944 h -0.143228 l -0.09208,-0.0921 -0.08149,-0.0614 v -0.17357 h -0.06138 0.23495 v 0.17357 h 0.143228 v 0.15346"
       style="fill:#25221e;fill-opacity:1;fill-rule:evenodd;stroke:none;stroke-width:0.35277775"
       id="path5320"
       inkscape:connector-curvature="0" />
    <path
       d="m -30.398203,108.70241 v 0.0921 h -0.09208 v 0.0815 l -0.06138,0.0614 -0.08149,0.0921 h -0.09208 v -0.15346 h 0.09208 v -0.17356 h 0.23495"
       style="fill:#25221e;fill-opacity:1;fill-rule:evenodd;stroke:none;stroke-width:0.35277775"
       id="path5322"
       inkscape:connector-curvature="0" />
    <path
       d="m -24.266219,108.64103 v 0.15346 h -6.285442 v -0.15346 z"
       style="fill:#25221e;fill-opacity:1;fill-rule:nonzero;stroke:none;stroke-width:0.35277775"
       id="path5324"
       inkscape:connector-curvature="0" />
    <path
       d="m -24.184375,106.04529 v 4.93642 h -0.173919 v -4.93642 z"
       style="fill:#25221e;fill-opacity:1;fill-rule:nonzero;stroke:none;stroke-width:0.35277775"
       id="path5326"
       inkscape:connector-curvature="0" />
    <path
       d="m -19.626134,101.46659 v -0.15346 h -0.09207 v -0.0818 l -0.06138,-0.061 h -0.316794 v 0.061 h -0.08184 v 0.0818 h -0.07126 v 0.32702 h 0.07126 v 0.0614 h 0.08184 v 0.0818 h 0.316794 l 0.06138,-0.0818 v -0.0614 h 0.09207 v -0.17356 h -0.316794 0.316794"
       style="fill:#25221e;fill-opacity:1;fill-rule:evenodd;stroke:none;stroke-width:0.35277775"
       id="path5328"
       inkscape:connector-curvature="0" />
    <path
       d="m -19.942928,106.04529 0.08184,-0.17392 v -4.40478 h -0.153458 v 4.40478 l 0.07161,0.17392 h 0.08184 v -0.17392 l -0.08184,0.17392"
       style="fill:#25221e;fill-opacity:1;fill-rule:evenodd;stroke:none;stroke-width:0.35277775"
       id="path5330"
       inkscape:connector-curvature="0" />
    <path
       d="m -23.335945,105.87137 0.09172,0.17392 h 3.301294 v -0.2353 h -3.301294 l -0.09172,0.0614 0.09172,-0.0614 h -0.09172 v 0.0614"
       style="fill:#25221e;fill-opacity:1;fill-rule:evenodd;stroke:none;stroke-width:0.35277775"
       id="path5332"
       inkscape:connector-curvature="0" />
    <path
       d="m -23.244222,111.07343 0.08184,-0.0921 v -5.10998 h -0.173567 v 5.10998 l 0.09172,0.0921 -0.09172,-0.0921 v 0.0921 h 0.09172"
       style="fill:#25221e;fill-opacity:1;fill-rule:evenodd;stroke:none;stroke-width:0.35277775"
       id="path5334"
       inkscape:connector-curvature="0" />
    <path
       d="m -19.861084,110.98136 -0.08184,-0.0614 h -3.301294 v 0.15346 h 3.301294 l 0.08184,-0.0921 v -0.0614 h -0.08184 l 0.08184,0.0614"
       style="fill:#25221e;fill-opacity:1;fill-rule:evenodd;stroke:none;stroke-width:0.35277775"
       id="path5336"
       inkscape:connector-curvature="0" />
    <path
       d="m -19.861084,110.98136 v 4.5787 h -0.153458 v -4.5787 z"
       style="fill:#25221e;fill-opacity:1;fill-rule:nonzero;stroke:none;stroke-width:0.35277775"
       id="path5338"
       inkscape:connector-curvature="0" />
    <path
       d="m -17.1835,115.47822 v 0.17356 h -5.109986 v -0.17356 z"
       style="fill:#25221e;fill-opacity:1;fill-rule:nonzero;stroke:none;stroke-width:0.35277775"
       id="path5340"
       inkscape:connector-curvature="0" />
    <path
       d="m -17.1835,116.34711 v 0.15346 h -5.109986 v -0.15346 z"
       style="fill:#25221e;fill-opacity:1;fill-rule:nonzero;stroke:none;stroke-width:0.35277775"
       id="path5342"
       inkscape:connector-curvature="0" />
    <path
       d="m -19.779592,116.34711 v 4.96711 h -0.163689 v -4.96711 z"
       style="fill:#25221e;fill-opacity:1;fill-rule:nonzero;stroke:none;stroke-width:0.35277775"
       id="path5344"
       inkscape:connector-curvature="0" />
    <path
       d="m -19.462797,121.54917 h -0.08149 v -0.17392 l -0.08185,-0.061 h -0.09207 v -0.0921 h -0.142875 v 0.1531 h 0.08149 v 0.0818 h 0.06138 v 0.0921 h 0.255412"
       style="fill:#25221e;fill-opacity:1;fill-rule:evenodd;stroke:none;stroke-width:0.35277775"
       id="path5346"
       inkscape:connector-curvature="0" />
    <path
       d="m -19.861084,121.92735 h 0.142875 v -0.0818 h 0.09207 v -0.0716 h 0.08185 v -0.16334 l 0.08149,-0.0614 h -0.255412 v 0.14323 h -0.06138 v 0.0815 h -0.08149 v 0.15346"
       style="fill:#25221e;fill-opacity:1;fill-rule:evenodd;stroke:none;stroke-width:0.35277775"
       id="path5348"
       inkscape:connector-curvature="0" />
    <path
       d="m -20.178231,121.54917 v 0.0614 l 0.08184,0.0818 v 0.0815 h 0.08184 v 0.0716 h 0.07161 v 0.0818 h 0.08184 v -0.23495 h -0.08184 v -0.0818 h -0.07161 v -0.0614 h -0.163689"
       style="fill:#25221e;fill-opacity:1;fill-rule:evenodd;stroke:none;stroke-width:0.35277775"
       id="path5350"
       inkscape:connector-curvature="0" />
    <path
       d="m -19.861084,121.22214 h -0.08184 v 0.0921 h -0.07161 l -0.08184,0.061 v 0.0819 l -0.08184,0.0921 h 0.235303 v -0.0921 l 0.08184,-0.0819 v -0.1531"
       style="fill:#25221e;fill-opacity:1;fill-rule:evenodd;stroke:none;stroke-width:0.35277775"
       id="path5352"
       inkscape:connector-curvature="0" />
    <path
       d="m -3.2533642,101.46659 v -0.15346 h -0.081844 v -0.0818 h -0.09208 v -0.061 h -0.296333 l -0.08185,0.061 -0.09172,0.0818 v 0.32702 l 0.09172,0.0614 0.08185,0.0818 h 0.296333 v -0.0818 h 0.09208 v -0.0614 h 0.08184 v -0.17356 h -0.316794 0.316794"
       style="fill:#25221e;fill-opacity:1;fill-rule:evenodd;stroke:none;stroke-width:0.35277775"
       id="path5354"
       inkscape:connector-curvature="0" />
    <path
       d="m -3.4886662,101.46659 v 8.3499 h -0.173567 v -8.3499 z"
       style="fill:#25221e;fill-opacity:1;fill-rule:nonzero;stroke:none;stroke-width:0.35277775"
       id="path5356"
       inkscape:connector-curvature="0" />
    <path
       d="m -0.97442125,109.66303 v 0.15346 H -6.0844062 v -0.15346 z"
       style="fill:#25221e;fill-opacity:1;fill-rule:nonzero;stroke:none;stroke-width:0.35277775"
       id="path5358"
       inkscape:connector-curvature="0" />
    <path
       d="m -0.97442125,110.91997 v 0.15346 H -6.0844062 v -0.15346 z"
       style="fill:#25221e;fill-opacity:1;fill-rule:nonzero;stroke:none;stroke-width:0.35277775"
       id="path5360"
       inkscape:connector-curvature="0" />
    <path
       d="m -3.4886662,110.98136 v 9.60684 h -0.173567 v -9.60684 z"
       style="fill:#25221e;fill-opacity:1;fill-rule:nonzero;stroke:none;stroke-width:0.35277775"
       id="path5362"
       inkscape:connector-curvature="0" />
    <path
       d="m -1.0562642,120.4351 v 0.23495 h -5.109986 v -0.23495 z"
       style="fill:#25221e;fill-opacity:1;fill-rule:nonzero;stroke:none;stroke-width:0.35277775"
       id="path5364"
       inkscape:connector-curvature="0" />
    <text
       y="97.409081"
       x="-33.658504"
       style="font-variant:normal;font-weight:normal;font-size:2.89231896px;font-family:Arial;-inkscape-font-specification:Arial;writing-mode:lr-tb;fill:#25221e;fill-opacity:1;fill-rule:nonzero;stroke:none;stroke-width:0.35277775"
       id="text5372">
      <tspan
         style="stroke-width:0.35277775"
         x="-33.658504 -30.926998 -29.317711 -28.353413 -26.744127 -26.100876 -25.457623 -23.848337"
         y="97.409081"
         sodipodi:role="line"
         id="tspan5366">Wordline</tspan>
      <tspan
         style="stroke-width:0.35277775"
         x="6.2207909 8.1528587 8.7978477 9.6048012 10.249794 10.894779 12.505798"
         y="99.790321"
         sodipodi:role="line"
         id="tspan5368">Bitline</tspan>
      <tspan
         style="stroke-width:0.35277775"
         x="0.26232514"
         y="111.77869"
         id="tspan5370">C</tspan>
    </text>
    <text
       y="112.07504"
       x="2.2654569"
       style="font-variant:normal;font-weight:normal;font-size:1.35928798px;font-family:Arial;-inkscape-font-specification:Arial;writing-mode:lr-tb;fill:#25221e;fill-opacity:1;fill-rule:nonzero;stroke:none;stroke-width:0.35277775"
       id="text5376">
      <tspan
         style="stroke-width:0.35277775"
         x="2.2654569 3.1852834"
         y="112.07504"
         sodipodi:role="line"
         id="tspan5374">BL</tspan>
    </text>
    <text
       y="116.88873"
       x="-15.670965"
       style="font-variant:normal;font-weight:normal;font-size:2.89231896px;font-family:Arial;-inkscape-font-specification:Arial;writing-mode:lr-tb;fill:#25221e;fill-opacity:1;fill-rule:nonzero;stroke:none;stroke-width:0.35277775"
       id="text5380">
      <tspan
         style="stroke-width:0.35277775"
         x="-15.670965"
         y="116.88873"
         id="tspan5378">C</tspan>
    </text>
    <text
       y="117.18513"
       x="-13.667822"
       style="font-variant:normal;font-weight:normal;font-size:1.35928798px;font-family:Arial;-inkscape-font-specification:Arial;writing-mode:lr-tb;fill:#25221e;fill-opacity:1;fill-rule:nonzero;stroke:none;stroke-width:0.35277775"
       id="text5384">
      <tspan
         style="stroke-width:0.35277775"
         x="-13.667822"
         y="117.18513"
         id="tspan5382">S</tspan>
    </text>
    <text
       y="125.34082"
       x="-20.965033"
       style="font-variant:normal;font-weight:normal;font-size:2.89231896px;font-family:Arial;-inkscape-font-specification:Arial;writing-mode:lr-tb;fill:#25221e;fill-opacity:1;fill-rule:nonzero;stroke:none;stroke-width:0.35277775"
       id="text5388">
      <tspan
         style="stroke-width:0.35277775"
         x="-20.965033"
         y="125.34082"
         id="tspan5386">V</tspan>
    </text>
    <text
       y="126.82274"
       x="-19.033434"
       style="font-variant:normal;font-weight:normal;font-size:1.8702867px;font-family:Arial;-inkscape-font-specification:Arial;writing-mode:lr-tb;fill:#25221e;fill-opacity:1;fill-rule:nonzero;stroke:none;stroke-width:0.35277775"
       id="text5392">
      <tspan
         style="stroke-width:0.35277775"
         x="-19.033434"
         y="126.82274"
         id="tspan5390">P</tspan>
    </text>
    <text
       y="109.60175"
       x="-19.626167"
       style="font-variant:normal;font-weight:normal;font-size:2.89231896px;font-family:Arial;-inkscape-font-specification:Arial;writing-mode:lr-tb;fill:#25221e;fill-opacity:1;fill-rule:nonzero;stroke:none;stroke-width:0.35277775"
       id="text5396">
      <tspan
         style="stroke-width:0.35277775"
         x="-19.626167"
         y="109.60175"
         id="tspan5394">M</tspan>
    </text>
    <text
       y="111.11432"
       x="-17.408398"
       style="font-variant:normal;font-weight:normal;font-size:1.8702867px;font-family:Arial;-inkscape-font-specification:Arial;writing-mode:lr-tb;fill:#25221e;fill-opacity:1;fill-rule:nonzero;stroke:none;stroke-width:0.35277775"
       id="text5400">
      <tspan
         style="stroke-width:0.35277775"
         x="-17.408398 -16.151751 -14.79224"
         y="111.11432"
         sodipodi:role="line"
         id="tspan5398">ACC</tspan>
    </text>
    <text
       y="84.878822"
       x="-12.318995"
       style="font-variant:normal;font-weight:normal;font-size:2.72877121px;font-family:Arial;-inkscape-font-specification:Arial;writing-mode:lr-tb;fill:#000000;fill-opacity:1;fill-rule:nonzero;stroke:none;stroke-width:0.35277775"
       id="text5428">
      <tspan
         style="stroke-width:0.35277775"
         x="15.868122 17.833656 19.346214 20.858768 22.371326 23.731075 24.332222 25.086185 26.59874 28.111298 29.471043 30.072193 32.340351 33.852901 35.365459 36.12215 37.481899 38.994457 39.595608 41.108158 43.376591 44.889149"
         y="109.89783"
         sodipodi:role="line"
         id="tspan5424">Capacitanciade columna</tspan>
      <tspan
         style="stroke-width:0.35277775"
         x="15.868122 16.773254 18.589794 19.192036 19.947086 20.549324 21.151566 22.665218 24.178867 24.935551 26.296394 27.810043 29.323696 30.837337 32.198185 32.800419 33.55547 35.069126 36.582775 37.943607 39.457256"
         y="114.82381"
         sodipodi:role="line"
         id="tspan5426">(Bitline capacitance)</tspan>
    </text>
    <path
       d="m -35.579803,99.851571 v 20.287189 h 25.111075 V 99.851571 Z"
       style="fill:none;stroke:#ff3300;stroke-width:0.25541109;stroke-linecap:butt;stroke-linejoin:miter;stroke-miterlimit:8;stroke-dasharray:2.04399439, 0.76658609;stroke-dashoffset:0;stroke-opacity:1"
       id="path5430"
       inkscape:connector-curvature="0" />
    <path
       d="m 13.67115,111.23712 v 0.38841 H 4.9839958 v -0.38841 z m -0.194029,-0.37818 1.154641,0.57221 -1.154641,0.5722"
       style="fill:#ff3300;fill-opacity:1;fill-rule:nonzero;stroke:none;stroke-width:0.35277775"
       id="path5442"
       inkscape:connector-curvature="0" />
    <path
       d="m -17.132347,118.04362 10.8433308,8.11494 -0.23495,0.30657 -10.8334538,-8.11495 z m 10.9149428,7.69584 0.58279,1.14477 -1.267532,-0.22508"
       style="fill:#ff3300;fill-opacity:1;fill-rule:nonzero;stroke:none;stroke-width:0.35277775"
       id="path5444"
       inkscape:connector-curvature="0" />
    <text
       y="129.21425"
       x="-3.4476359"
       style="font-variant:normal;font-weight:normal;font-size:2.72877121px;font-family:Arial;-inkscape-font-specification:Arial;writing-mode:lr-tb;fill:#000000;fill-opacity:1;fill-rule:nonzero;stroke:none;stroke-width:0.35277775"
       id="text5448">
      <tspan
         style="stroke-width:0.35277775"
         x="-3.4476359 -1.4815561 0.031543572 1.5446471 3.0577543 4.418045 5.0197372 5.7742462 7.2873497 8.8004532 10.160744 10.76244 13.030594 14.543697 16.056797 16.813488 18.326591 18.928284 21.197258 22.710361 24.070656 25.583759 27.096863 28.609966 30.878941 31.480633 32.99374 34.50684 35.261341"
         y="129.21425"
         sodipodi:role="line"
         id="tspan5446">Capacitanciade almacenamiento</tspan>
    </text>
  </g>
</svg>
