<?xml version="1.0" encoding="UTF-8" standalone="no"?>
<!-- Created with Inkscape (http://www.inkscape.org/) -->

<svg
   xmlns:dc="http://purl.org/dc/elements/1.1/"
   xmlns:cc="http://creativecommons.org/ns#"
   xmlns:rdf="http://www.w3.org/1999/02/22-rdf-syntax-ns#"
   xmlns:svg="http://www.w3.org/2000/svg"
   xmlns="http://www.w3.org/2000/svg"
   xmlns:sodipodi="http://sodipodi.sourceforge.net/DTD/sodipodi-0.dtd"
   xmlns:inkscape="http://www.inkscape.org/namespaces/inkscape"
   width="102.15108mm"
   height="68.320564mm"
   viewBox="0 0 102.15108 68.320564"
   version="1.1"
   id="svg6325"
   inkscape:version="0.92.3 (2405546, 2018-03-11)"
   sodipodi:docname="pstatic.svg">
  <defs
     id="defs6319" />
  <sodipodi:namedview
     id="base"
     pagecolor="#ffffff"
     bordercolor="#666666"
     borderopacity="1.0"
     inkscape:pageopacity="0.0"
     inkscape:pageshadow="2"
     inkscape:zoom="0.35"
     inkscape:cx="873.04141"
     inkscape:cy="-150.89027"
     inkscape:document-units="mm"
     inkscape:current-layer="layer1"
     showgrid="false"
     fit-margin-top="0"
     fit-margin-left="0"
     fit-margin-right="0"
     fit-margin-bottom="0"
     inkscape:window-width="1366"
     inkscape:window-height="705"
     inkscape:window-x="-8"
     inkscape:window-y="-8"
     inkscape:window-maximized="1" />
  <metadata
     id="metadata6322">
    <rdf:RDF>
      <cc:Work
         rdf:about="">
        <dc:format>image/svg+xml</dc:format>
        <dc:type
           rdf:resource="http://purl.org/dc/dcmitype/StillImage" />
        <dc:title></dc:title>
      </cc:Work>
    </rdf:RDF>
  </metadata>
  <g
     inkscape:label="Layer 1"
     inkscape:groupmode="layer"
     id="layer1"
     transform="translate(125.15887,-40.589718)">
    <text
       y="82.425301"
       x="-125.31158"
       style="font-variant:normal;font-weight:normal;font-size:3.06606221px;font-family:Arial;-inkscape-font-specification:Arial;writing-mode:lr-tb;fill:#000000;fill-opacity:1;fill-rule:nonzero;stroke:none;stroke-width:0.35277775"
       id="text5588">
      <tspan
         style="stroke-width:0.35277775"
         x="-125.31158 -123.0985 -121.39439 -120.37399 -119.35361 -118.67356 -116.96944 -115.26533 -114.41357 -112.70946 -111.86077 -110.15665 -108.45253 -107.60385 -106.7521 -105.04798 -103.34386 -101.63975 -100.79105 -99.086945 -97.38282 -96.534134 -95.001724 -93.2976 -90.744186 -89.040077 -87.335953 -85.631836 -84.61145 -83.759697"
         y="82.425301"
         sodipodi:role="line"
         id="tspan5584">Corriente de fuga de compuerta</tspan>
      <tspan
         style="stroke-width:0.35277775"
         x="-95.488914 -93.275223 -91.570488 -90.549492 -89.528496 -88.847832 -87.143089 -85.438362 -84.585999 -82.881271 -82.032585 -80.327858 -78.623123 -77.774437 -76.241402 -74.536674 -72.831947 -71.127213 -68.573181 -66.868454 -65.847458 -64.142723 -62.610302 -61.589306"
         y="42.821896"
         sodipodi:role="line"
         id="tspan5586">Corriente de subumbral(V</tspan>
    </text>
    <text
       y="43.670368"
       x="-59.544743"
       style="font-variant:normal;font-weight:normal;font-size:2.04402971px;font-family:Arial;-inkscape-font-specification:Arial;writing-mode:lr-tb;fill:#000000;fill-opacity:1;fill-rule:nonzero;stroke:none;stroke-width:0.35277775"
       id="text5592">
      <tspan
         style="stroke-width:0.35277775"
         x="-59.544743 -57.949986"
         y="43.670368"
         sodipodi:role="line"
         id="tspan5590">GS</tspan>
    </text>
    <text
       y="42.822079"
       x="-55.732586"
       style="font-variant:normal;font-weight:normal;font-size:3.06606221px;font-family:Arial;-inkscape-font-specification:Arial;writing-mode:lr-tb;fill:#000000;fill-opacity:1;fill-rule:nonzero;stroke:none;stroke-width:0.35277775"
       id="text5598">
      <tspan
         style="stroke-width:0.35277775"
         x="-55.732586 -53.94231 -53.093632 -51.389202"
         y="42.822079"
         sodipodi:role="line"
         id="tspan5594">&lt; 0)</tspan>
      <tspan
         style="stroke-width:0.35277775"
         x="-69.069962 -66.856873 -65.152763 -64.13237 -63.111988 -62.431934 -60.727818 -59.023701 -58.171947 -56.467831 -55.619457 -53.915333 -52.211216 -51.362835 -50.342449 -48.638332 -47.105915 -45.401798 -44.381413 -42.848995 -41.144878 -40.296497 -38.592381 -36.888264 -36.039883 -35.359829 -33.65572 -31.951603 -31.099842 -29.395733 -27.863308 -27.014935 -24.970486"
         y="82.425484"
         sodipodi:role="line"
         id="tspan5596">Corriente de reversa de juntas PN</tspan>
    </text>
    <path
       d="m -43.703325,94.556621 0.02045,-3.597627"
       style="fill:none;stroke:#000000;stroke-width:0.17039166;stroke-linecap:butt;stroke-linejoin:round;stroke-miterlimit:10;stroke-dasharray:none;stroke-opacity:1"
       id="path5600"
       inkscape:connector-curvature="0" />
    <path
       d="m -44.040582,90.672892 0.04057,-0.142875 0.102304,-0.102306 0.14323,-0.04092 h 0.142875 l 0.143227,0.04092 0.112535,0.102306 0.02045,0.142875 -0.02045,0.122767 -0.112535,0.102304 -0.143227,0.04057 h -0.142875 l -0.14323,-0.04057 -0.102304,-0.102304 -0.04057,-0.122767"
       style="fill:#000000;fill-opacity:1;fill-rule:evenodd;stroke:none;stroke-width:0.35277775"
       id="path5602"
       inkscape:connector-curvature="0" />
    <path
       d="m -44.040582,90.672892 0.04057,-0.142875 0.102304,-0.102306 0.14323,-0.04092 h 0.142875 l 0.143227,0.04092 0.112535,0.102306 0.02045,0.142875 -0.02045,0.122767 -0.112535,0.102304 -0.143227,0.04057 h -0.142875 l -0.14323,-0.04057 -0.102304,-0.102304 z"
       style="fill:none;stroke:#000000;stroke-width:0.04268611;stroke-linecap:round;stroke-linejoin:round;stroke-miterlimit:10;stroke-dasharray:none;stroke-opacity:1"
       id="path5604"
       inkscape:connector-curvature="0" />
    <path
       d="M -54.669775,95.537696 V 91.020378"
       style="fill:none;stroke:#000000;stroke-width:0.17039166;stroke-linecap:butt;stroke-linejoin:round;stroke-miterlimit:10;stroke-dasharray:none;stroke-opacity:1"
       id="path5606"
       inkscape:connector-curvature="0" />
    <path
       d="m -55.027492,90.857042 0.03069,-0.132998 0.112535,-0.102306 0.122415,-0.06103 h 0.163689 l 0.143227,0.06103 0.08149,0.102306 0.05115,0.132998 -0.05115,0.112184 -0.08149,0.102303 -0.143227,0.06138 h -0.163689 l -0.122415,-0.06138 -0.112535,-0.102303 -0.03069,-0.112184"
       style="fill:#000000;fill-opacity:1;fill-rule:evenodd;stroke:none;stroke-width:0.35277775"
       id="path5608"
       inkscape:connector-curvature="0" />
    <path
       d="m -55.027492,90.857042 0.03069,-0.132998 0.112535,-0.102306 0.122415,-0.06103 h 0.163689 l 0.143227,0.06103 0.08149,0.102306 0.05115,0.132998 -0.05115,0.112184 -0.08149,0.102303 -0.143227,0.06138 h -0.163689 l -0.122415,-0.06138 -0.112535,-0.102303 z"
       style="fill:none;stroke:#000000;stroke-width:0.04268611;stroke-linecap:round;stroke-linejoin:round;stroke-miterlimit:10;stroke-dasharray:none;stroke-opacity:1"
       id="path5610"
       inkscape:connector-curvature="0" />
    <path
       d="M -31.623157,95.578619 V 91.132913"
       style="fill:none;stroke:#000000;stroke-width:0.17039166;stroke-linecap:butt;stroke-linejoin:round;stroke-miterlimit:10;stroke-dasharray:none;stroke-opacity:1"
       id="path5612"
       inkscape:connector-curvature="0" />
    <path
       d="m -31.991105,90.857042 0.03069,-0.132998 0.112538,-0.102306 0.122412,-0.06103 h 0.173921 l 0.142875,0.06103 0.09207,0.102306 0.03069,0.132998 -0.03069,0.112184 -0.09207,0.102303 -0.142875,0.06138 h -0.173921 l -0.122412,-0.06138 -0.112538,-0.102303 -0.03069,-0.112184"
       style="fill:#000000;fill-opacity:1;fill-rule:evenodd;stroke:none;stroke-width:0.35277775"
       id="path5614"
       inkscape:connector-curvature="0" />
    <path
       d="m -31.991105,90.857042 0.03069,-0.132998 0.112538,-0.102306 0.122412,-0.06103 h 0.173921 l 0.142875,0.06103 0.09207,0.102306 0.03069,0.132998 -0.03069,0.112184 -0.09207,0.102303 -0.142875,0.06138 h -0.173921 l -0.122412,-0.06138 -0.112538,-0.102303 z"
       style="fill:none;stroke:#000000;stroke-width:0.04268611;stroke-linecap:round;stroke-linejoin:round;stroke-miterlimit:10;stroke-dasharray:none;stroke-opacity:1"
       id="path5616"
       inkscape:connector-curvature="0" />
    <path
       d="m -43.703325,106.33023 0.02045,-0.67451"
       style="fill:none;stroke:#000000;stroke-width:0.17039166;stroke-linecap:butt;stroke-linejoin:round;stroke-miterlimit:10;stroke-dasharray:none;stroke-opacity:1"
       id="path5618"
       inkscape:connector-curvature="0" />
    <path
       d="m -44.061042,105.97251 0.04092,-0.11218 0.101952,-0.10231 0.143227,-0.0614 h 0.142875 l 0.143229,0.0614 0.102304,0.10231 0.03069,0.11218 -0.03069,0.133 -0.102304,0.1023 -0.143229,0.0406 h -0.142875 l -0.143227,-0.0406 -0.101952,-0.1023 -0.04092,-0.133"
       style="fill:#000000;fill-opacity:1;fill-rule:evenodd;stroke:none;stroke-width:0.35277775"
       id="path5620"
       inkscape:connector-curvature="0" />
    <path
       d="m -44.061042,105.97251 0.04092,-0.11218 0.101952,-0.10231 0.143227,-0.0614 h 0.142875 l 0.143229,0.0614 0.102304,0.10231 0.03069,0.11218 -0.03069,0.133 -0.102304,0.1023 -0.143229,0.0406 h -0.142875 l -0.143227,-0.0406 -0.101952,-0.1023 z"
       style="fill:none;stroke:#000000;stroke-width:0.04268611;stroke-linecap:round;stroke-linejoin:round;stroke-miterlimit:10;stroke-dasharray:none;stroke-opacity:1"
       id="path5622"
       inkscape:connector-curvature="0" />
    <text
       y="108.88533"
       x="-46.299381"
       style="font-variant:normal;font-weight:normal;font-size:2.04402971px;font-family:Arial;-inkscape-font-specification:Arial;writing-mode:lr-tb;fill:#000000;fill-opacity:1;fill-rule:nonzero;stroke:none;stroke-width:0.35277775"
       id="text5626">
      <tspan
         style="stroke-width:0.35277775"
         x="-46.299381 -44.937031 -43.801579 -42.666119 -41.64513 -41.077908 -40.398266 -39.262806 -38.695591"
         y="108.88533"
         sodipodi:role="line"
         id="tspan5624">Substrato</tspan>
    </text>
    <path
       d="M -27.13653,95.537696 V 103.7546 H -59.391352 V 95.537696 Z"
       style="fill:#33cc33;fill-opacity:1;fill-rule:nonzero;stroke:none;stroke-width:0.35277775"
       id="path5628"
       inkscape:connector-curvature="0" />
    <path
       d="m -36.038172,94.556621 v 0.981075 h -14.349235 v -0.981075 z"
       style="fill:#ffffff;fill-opacity:1;fill-rule:nonzero;stroke:none;stroke-width:0.35277775"
       id="path5630"
       inkscape:connector-curvature="0" />
    <path
       d="m -50.387407,94.556621 v 0.981075 h 14.349235 v -0.981075 z"
       style="fill:none;stroke:#000000;stroke-width:0.17039166;stroke-linecap:round;stroke-linejoin:miter;stroke-miterlimit:8;stroke-dasharray:none;stroke-opacity:1"
       id="path5632"
       inkscape:connector-curvature="0" />
    <path
       d="m -36.038172,92.277678 v 2.278943 h -14.349235 v -2.278943 z"
       style="fill:#ff3300;fill-opacity:1;fill-rule:nonzero;stroke:none;stroke-width:0.35277775"
       id="path5634"
       inkscape:connector-curvature="0" />
    <text
       y="89.191048"
       x="-59.626476"
       style="font-variant:normal;font-weight:normal;font-size:2.04402971px;font-family:Arial;-inkscape-font-specification:Arial;writing-mode:lr-tb;fill:#000000;fill-opacity:1;fill-rule:nonzero;stroke:none;stroke-width:0.35277775"
       id="text5638">
      <tspan
         style="stroke-width:0.35277775"
         x="-59.626476 -58.158657 -57.473911 -56.345402 -55.216892 -54.088383 -52.959881 -51.831371"
         y="89.191048"
         sodipodi:role="line"
         id="tspan5636">Drenador</tspan>
    </text>
    <path
       d="m -59.391352,95.547928 0.04092,3.076223 6.326013,-0.03069 c 1.461558,-0.112183 1.93181,-0.337256 2.463094,-0.643821 0.531635,-0.296334 0.552098,-0.766234 0.694973,-1.164871 0.132995,-0.511175 0.163687,-0.991306 0.20461,-1.247071"
       style="fill:#339966;fill-opacity:1;fill-rule:evenodd;stroke:none;stroke-width:0.35277775"
       id="path5640"
       inkscape:connector-curvature="0" />
    <path
       d="m -27.17745,95.547928 -0.04092,3.076223 -6.326365,-0.03069 c -1.461204,-0.112183 -1.931459,-0.337256 -2.463094,-0.643821 -0.531283,-0.296334 -0.551743,-0.766234 -0.70485,-1.164871 -0.132998,-0.511175 -0.153458,-0.991306 -0.194381,-1.247071"
       style="fill:#339966;fill-opacity:1;fill-rule:evenodd;stroke:none;stroke-width:0.35277775"
       id="path5642"
       inkscape:connector-curvature="0" />
    <text
       y="89.129738"
       x="-47.893719"
       style="font-variant:normal;font-weight:normal;font-size:2.04402971px;font-family:Arial;-inkscape-font-specification:Arial;writing-mode:lr-tb;fill:#000000;fill-opacity:1;fill-rule:nonzero;stroke:none;stroke-width:0.35277775"
       id="text5646">
      <tspan
         style="stroke-width:0.35277775"
         x="-47.893719 -46.417118 -45.279819 -43.576328 -42.439022 -41.301731 -40.164433 -39.482952 -38.913891 -34.018848 -32.769131 -31.631832 -30.494534 -29.357243 -28.788181"
         y="89.129738"
         sodipodi:role="line"
         id="tspan5644">CompuertaFuente</tspan>
    </text>
    <path
       d="m -43.785169,103.63218 v 2.57563 m -14.349238,-8.237709 h 3.423709 m -1.635125,3.996269 v -6.193369"
       style="fill:none;stroke:#000000;stroke-width:0.12770554;stroke-linecap:round;stroke-linejoin:round;stroke-miterlimit:10;stroke-dasharray:none;stroke-opacity:1"
       id="path5648"
       inkscape:connector-curvature="0" />
    <path
       d="m -56.335592,97.837454 -1.379715,1.68628 h 2.749198"
       style="fill:#000000;fill-opacity:1;fill-rule:evenodd;stroke:none;stroke-width:0.35277775"
       id="path5650"
       inkscape:connector-curvature="0" />
    <path
       d="m -56.335592,97.837454 -1.379715,1.68628 h 2.749198 z m 23.874235,0.06103 h 3.43394 m -1.645356,4.006496 v -6.172904"
       style="fill:none;stroke:#000000;stroke-width:0.12770554;stroke-linecap:round;stroke-linejoin:round;stroke-miterlimit:10;stroke-dasharray:none;stroke-opacity:1"
       id="path5652"
       inkscape:connector-curvature="0" />
    <path
       d="m -30.662542,97.776071 -1.369483,1.676048 h 2.749195"
       style="fill:#000000;fill-opacity:1;fill-rule:evenodd;stroke:none;stroke-width:0.35277775"
       id="path5654"
       inkscape:connector-curvature="0" />
    <path
       d="m -30.662542,97.776071 -1.369483,1.676048 h 2.749195 z"
       style="fill:none;stroke:#000000;stroke-width:0.12770554;stroke-linecap:round;stroke-linejoin:round;stroke-miterlimit:10;stroke-dasharray:none;stroke-opacity:1"
       id="path5656"
       inkscape:connector-curvature="0" />
    <path
       d="m -102.61263,93.596009 0.0205,-3.59763"
       style="fill:none;stroke:#000000;stroke-width:0.17039166;stroke-linecap:butt;stroke-linejoin:round;stroke-miterlimit:10;stroke-dasharray:none;stroke-opacity:1"
       id="path5658"
       inkscape:connector-curvature="0" />
    <path
       d="m -102.96011,89.712278 0.0512,-0.132999 0.0921,-0.101951 0.14287,-0.05115 h 0.14323 l 0.14323,0.05115 0.11218,0.101951 0.0205,0.132999 -0.0205,0.122766 -0.11218,0.101952 -0.14323,0.04092 h -0.14323 l -0.14287,-0.04092 -0.0921,-0.101952 -0.0512,-0.122766"
       style="fill:#000000;fill-opacity:1;fill-rule:evenodd;stroke:none;stroke-width:0.35277775"
       id="path5660"
       inkscape:connector-curvature="0" />
    <path
       d="m -102.96011,89.712278 0.0512,-0.132999 0.0921,-0.101951 0.14287,-0.05115 h 0.14323 l 0.14323,0.05115 0.11218,0.101951 0.0205,0.132999 -0.0205,0.122766 -0.11218,0.101952 -0.14323,0.04092 h -0.14323 l -0.14287,-0.04092 -0.0921,-0.101952 z"
       style="fill:none;stroke:#000000;stroke-width:0.04268611;stroke-linecap:round;stroke-linejoin:round;stroke-miterlimit:10;stroke-dasharray:none;stroke-opacity:1"
       id="path5662"
       inkscape:connector-curvature="0" />
    <path
       d="m -113.57872,94.577084 v -4.50709"
       style="fill:none;stroke:#000000;stroke-width:0.17039166;stroke-linecap:butt;stroke-linejoin:round;stroke-miterlimit:10;stroke-dasharray:none;stroke-opacity:1"
       id="path5664"
       inkscape:connector-curvature="0" />
    <path
       d="m -113.94667,89.896076 0.0409,-0.122415 0.10195,-0.102307 0.12277,-0.07161 h 0.16369 l 0.14287,0.07161 0.0921,0.102307 0.0409,0.122415 -0.0409,0.112535 -0.0921,0.102306 -0.14287,0.06138 h -0.16369 l -0.12277,-0.06138 -0.10195,-0.102306 -0.0409,-0.112535"
       style="fill:#000000;fill-opacity:1;fill-rule:evenodd;stroke:none;stroke-width:0.35277775"
       id="path5666"
       inkscape:connector-curvature="0" />
    <path
       d="m -113.94667,89.896076 0.0409,-0.122415 0.10195,-0.102307 0.12277,-0.07161 h 0.16369 l 0.14287,0.07161 0.0921,0.102307 0.0409,0.122415 -0.0409,0.112535 -0.0921,0.102306 -0.14287,0.06138 h -0.16369 l -0.12277,-0.06138 -0.10195,-0.102306 z"
       style="fill:none;stroke:#000000;stroke-width:0.04268611;stroke-linecap:round;stroke-linejoin:round;stroke-miterlimit:10;stroke-dasharray:none;stroke-opacity:1"
       id="path5668"
       inkscape:connector-curvature="0" />
    <path
       d="M -90.542687,94.618004 V 90.172301"
       style="fill:none;stroke:#000000;stroke-width:0.17039166;stroke-linecap:butt;stroke-linejoin:round;stroke-miterlimit:10;stroke-dasharray:none;stroke-opacity:1"
       id="path5670"
       inkscape:connector-curvature="0" />
    <path
       d="m -90.900404,89.896076 0.03069,-0.122415 0.112535,-0.102307 0.122766,-0.07161 h 0.163336 l 0.143229,0.07161 0.09208,0.102307 0.03034,0.122415 -0.03034,0.112535 -0.09208,0.102306 -0.143229,0.06138 h -0.163336 l -0.122766,-0.06138 -0.112535,-0.102306 -0.03069,-0.112535"
       style="fill:#000000;fill-opacity:1;fill-rule:evenodd;stroke:none;stroke-width:0.35277775"
       id="path5672"
       inkscape:connector-curvature="0" />
    <path
       d="m -90.900404,89.896076 0.03069,-0.122415 0.112535,-0.102307 0.122766,-0.07161 h 0.163336 l 0.143229,0.07161 0.09208,0.102307 0.03034,0.122415 -0.03034,0.112535 -0.09208,0.102306 -0.143229,0.06138 h -0.163336 l -0.122766,-0.06138 -0.112535,-0.102306 z"
       style="fill:none;stroke:#000000;stroke-width:0.04268611;stroke-linecap:round;stroke-linejoin:round;stroke-miterlimit:10;stroke-dasharray:none;stroke-opacity:1"
       id="path5674"
       inkscape:connector-curvature="0" />
    <path
       d="m -102.61263,105.37984 0.0205,-0.68474"
       style="fill:none;stroke:#000000;stroke-width:0.17039166;stroke-linecap:butt;stroke-linejoin:round;stroke-miterlimit:10;stroke-dasharray:none;stroke-opacity:1"
       id="path5676"
       inkscape:connector-curvature="0" />
    <path
       d="m -102.98057,105.02213 0.0512,-0.11254 0.0921,-0.10195 0.14287,-0.0716 h 0.14323 l 0.14323,0.0716 0.11218,0.10195 0.0205,0.11254 -0.0205,0.12276 -0.11218,0.10196 -0.14323,0.0409 h -0.14323 l -0.14287,-0.0409 -0.0921,-0.10196 -0.0512,-0.12276"
       style="fill:#000000;fill-opacity:1;fill-rule:evenodd;stroke:none;stroke-width:0.35277775"
       id="path5678"
       inkscape:connector-curvature="0" />
    <path
       d="m -102.98057,105.02213 0.0512,-0.11254 0.0921,-0.10195 0.14287,-0.0716 h 0.14323 l 0.14323,0.0716 0.11218,0.10195 0.0205,0.11254 -0.0205,0.12276 -0.11218,0.10196 -0.14323,0.0409 h -0.14323 l -0.14287,-0.0409 -0.0921,-0.10196 z"
       style="fill:none;stroke:#000000;stroke-width:0.04268611;stroke-linecap:round;stroke-linejoin:round;stroke-miterlimit:10;stroke-dasharray:none;stroke-opacity:1"
       id="path5680"
       inkscape:connector-curvature="0" />
    <text
       y="107.93488"
       x="-105.20847"
       style="font-variant:normal;font-weight:normal;font-size:2.04402971px;font-family:Arial;-inkscape-font-specification:Arial;writing-mode:lr-tb;fill:#000000;fill-opacity:1;fill-rule:nonzero;stroke:none;stroke-width:0.35277775"
       id="text5684">
      <tspan
         style="stroke-width:0.35277775"
         x="-105.20847 -103.84612 -102.71067 -101.57521 -100.55421 -99.987 -99.307358 -98.171898 -97.604683"
         y="107.93488"
         sodipodi:role="line"
         id="tspan5682">Substrato</tspan>
    </text>
    <path
       d="m -86.045477,94.577084 v 8.227126 h -32.265053 v -8.227126 z"
       style="fill:#33cc33;fill-opacity:1;fill-rule:nonzero;stroke:none;stroke-width:0.35277775"
       id="path5686"
       inkscape:connector-curvature="0" />
    <path
       d="m -94.947471,93.606238 v 0.970846 h -14.349239 v -0.970846 z"
       style="fill:#ffffff;fill-opacity:1;fill-rule:nonzero;stroke:none;stroke-width:0.35277775"
       id="path5688"
       inkscape:connector-curvature="0" />
    <path
       d="m -109.29671,93.596009 v 0.981075 h 14.349239 v -0.981075 z"
       style="fill:none;stroke:#000000;stroke-width:0.17039166;stroke-linecap:round;stroke-linejoin:miter;stroke-miterlimit:8;stroke-dasharray:none;stroke-opacity:1"
       id="path5690"
       inkscape:connector-curvature="0" />
    <path
       d="m -94.947471,91.326942 v 2.278944 h -14.349239 v -2.278944 z"
       style="fill:#ff3300;fill-opacity:1;fill-rule:nonzero;stroke:none;stroke-width:0.35277775"
       id="path5692"
       inkscape:connector-curvature="0" />
    <text
       y="88.230362"
       x="-118.54584"
       style="font-variant:normal;font-weight:normal;font-size:2.04402971px;font-family:Arial;-inkscape-font-specification:Arial;writing-mode:lr-tb;fill:#000000;fill-opacity:1;fill-rule:nonzero;stroke:none;stroke-width:0.35277775"
       id="text5696">
      <tspan
         style="stroke-width:0.35277775"
         x="-118.54584 -117.07802 -116.39326 -115.26476 -114.13625 -113.00774 -111.87923 -110.75072"
         y="88.230362"
         sodipodi:role="line"
         id="tspan5694">Drenador</tspan>
    </text>
    <path
       d="m -118.31088,94.587313 0.0511,3.076223 6.31613,-0.03069 c 1.47179,-0.112183 1.93146,-0.337256 2.46309,-0.63359 0.54152,-0.306562 0.56198,-0.776816 0.70521,-1.175453 0.13299,-0.500592 0.1531,-0.991307 0.19403,-1.246717"
       style="fill:#339966;fill-opacity:1;fill-rule:evenodd;stroke:none;stroke-width:0.35277775"
       id="path5698"
       inkscape:connector-curvature="0" />
    <path
       d="m -86.096629,94.587313 -0.04092,3.076223 -6.326365,-0.03069 c -1.461561,-0.112185 -1.931461,-0.337258 -2.463097,-0.633592 -0.531283,-0.306562 -0.551743,-0.776816 -0.694973,-1.175453 -0.132995,-0.500592 -0.153103,-0.991307 -0.204258,-1.246717"
       style="fill:#339966;fill-opacity:1;fill-rule:evenodd;stroke:none;stroke-width:0.35277775"
       id="path5700"
       inkscape:connector-curvature="0" />
    <text
       y="88.169052"
       x="-106.81304"
       style="font-variant:normal;font-weight:normal;font-size:2.04402971px;font-family:Arial;-inkscape-font-specification:Arial;writing-mode:lr-tb;fill:#000000;fill-opacity:1;fill-rule:nonzero;stroke:none;stroke-width:0.35277775"
       id="text5704">
      <tspan
         style="stroke-width:0.35277775"
         x="-106.81304 -105.33644 -104.19914 -102.49564 -101.35835 -100.22105 -99.083748 -98.402275 -97.833214 -92.927956 -91.678238 -90.540932 -89.403641 -88.266342 -87.697281"
         y="88.169052"
         sodipodi:role="line"
         id="tspan5702">CompuertaFuente</tspan>
    </text>
    <path
       d="m -102.7047,102.67157 v 2.57528"
       style="fill:none;stroke:#000000;stroke-width:0.12770554;stroke-linecap:round;stroke-linejoin:round;stroke-miterlimit:10;stroke-dasharray:none;stroke-opacity:1"
       id="path5706"
       inkscape:connector-curvature="0" />
    <path
       d="m -99.567097,96.580154 v -3.975451 l 0.01023,-0.05115 0.05115,-0.02045 0.04092,0.02045 0.02046,0.05115 v 3.975451 l -0.02046,0.05116 -0.04092,0.01024 -0.05115,-0.01024 z m -0.449443,-3.812116 0.510827,-1.021996 0.511175,1.021996"
       style="fill:#000000;fill-opacity:1;fill-rule:nonzero;stroke:none;stroke-width:0.35277775"
       id="path5708"
       inkscape:connector-curvature="0" />
    <text
       y="98.13372"
       x="-98.524498"
       style="font-variant:normal;font-weight:normal;font-size:3.40331745px;font-family:'Times New Roman';-inkscape-font-specification:TimesNewRoman;writing-mode:lr-tb;fill:#000000;fill-opacity:1;fill-rule:nonzero;stroke:none;stroke-width:0.35277775"
       id="text5712">
      <tspan
         style="stroke-width:0.35277775"
         x="-98.524498"
         y="98.13372"
         id="tspan5710">I</tspan>
    </text>
    <path
       d="m -72.831127,55.934512 0.02045,-3.597275"
       style="fill:none;stroke:#000000;stroke-width:0.17039166;stroke-linecap:butt;stroke-linejoin:round;stroke-miterlimit:10;stroke-dasharray:none;stroke-opacity:1"
       id="path5714"
       inkscape:connector-curvature="0" />
    <path
       d="m -73.168384,52.040551 0.04092,-0.132645 0.102304,-0.102305 0.14323,-0.04092 h 0.142875 l 0.143227,0.04092 0.112183,0.102305 0.02045,0.132645 -0.02045,0.132997 -0.112183,0.09207 -0.143227,0.05115 h -0.142875 l -0.14323,-0.05115 -0.102304,-0.09207 -0.04092,-0.132997"
       style="fill:#000000;fill-opacity:1;fill-rule:evenodd;stroke:none;stroke-width:0.35277775"
       id="path5716"
       inkscape:connector-curvature="0" />
    <path
       d="m -73.168384,52.040551 0.04092,-0.132645 0.102304,-0.102305 0.14323,-0.04092 h 0.142875 l 0.143227,0.04092 0.112183,0.102305 0.02045,0.132645 -0.02045,0.132997 -0.112183,0.09207 -0.143227,0.05115 h -0.142875 l -0.14323,-0.05115 -0.102304,-0.09207 z"
       style="fill:none;stroke:#000000;stroke-width:0.04268611;stroke-linecap:round;stroke-linejoin:round;stroke-miterlimit:10;stroke-dasharray:none;stroke-opacity:1"
       id="path5718"
       inkscape:connector-curvature="0" />
    <path
       d="M -83.797225,56.915587 V 52.398268"
       style="fill:none;stroke:#000000;stroke-width:0.17039166;stroke-linecap:butt;stroke-linejoin:round;stroke-miterlimit:10;stroke-dasharray:none;stroke-opacity:1"
       id="path5720"
       inkscape:connector-curvature="0" />
    <path
       d="m -84.154942,52.234931 0.03069,-0.132997 0.112538,-0.101953 0.122412,-0.07161 h 0.163689 l 0.142875,0.07161 0.08184,0.101953 0.05116,0.132997 -0.05116,0.112537 -0.08184,0.101952 -0.142875,0.06138 h -0.163689 l -0.122412,-0.06138 -0.112538,-0.101952 -0.03069,-0.112537"
       style="fill:#000000;fill-opacity:1;fill-rule:evenodd;stroke:none;stroke-width:0.35277775"
       id="path5722"
       inkscape:connector-curvature="0" />
    <path
       d="m -84.154942,52.234931 0.03069,-0.132997 0.112538,-0.101953 0.122412,-0.07161 h 0.163689 l 0.142875,0.07161 0.08184,0.101953 0.05116,0.132997 -0.05116,0.112537 -0.08184,0.101952 -0.142875,0.06138 H -83.8893 l -0.122412,-0.06138 -0.112538,-0.101952 z"
       style="fill:none;stroke:#000000;stroke-width:0.04268611;stroke-linecap:round;stroke-linejoin:round;stroke-miterlimit:10;stroke-dasharray:none;stroke-opacity:1"
       id="path5724"
       inkscape:connector-curvature="0" />
    <path
       d="M -60.750607,56.956509 V 52.510804"
       style="fill:none;stroke:#000000;stroke-width:0.17039166;stroke-linecap:butt;stroke-linejoin:round;stroke-miterlimit:10;stroke-dasharray:none;stroke-opacity:1"
       id="path5726"
       inkscape:connector-curvature="0" />
    <path
       d="m -61.118552,52.234931 0.03069,-0.132997 0.112184,-0.101953 0.122766,-0.07161 h 0.173919 l 0.142875,0.07161 0.09208,0.101953 0.03069,0.132997 -0.03069,0.112537 -0.09208,0.101952 -0.142875,0.06138 h -0.173919 l -0.122766,-0.06138 -0.112184,-0.101952 -0.03069,-0.112537"
       style="fill:#000000;fill-opacity:1;fill-rule:evenodd;stroke:none;stroke-width:0.35277775"
       id="path5728"
       inkscape:connector-curvature="0" />
    <path
       d="m -61.118552,52.234931 0.03069,-0.132997 0.112184,-0.101953 0.122766,-0.07161 h 0.173919 l 0.142875,0.07161 0.09208,0.101953 0.03069,0.132997 -0.03069,0.112537 -0.09208,0.101952 -0.142875,0.06138 h -0.173918 l -0.122766,-0.06138 -0.112184,-0.101952 z"
       style="fill:none;stroke:#000000;stroke-width:0.04268611;stroke-linecap:round;stroke-linejoin:round;stroke-miterlimit:10;stroke-dasharray:none;stroke-opacity:1"
       id="path5730"
       inkscape:connector-curvature="0" />
    <path
       d="m -72.831127,67.708117 0.02045,-0.684742"
       style="fill:none;stroke:#000000;stroke-width:0.17039166;stroke-linecap:butt;stroke-linejoin:round;stroke-miterlimit:10;stroke-dasharray:none;stroke-opacity:1"
       id="path5732"
       inkscape:connector-curvature="0" />
    <path
       d="m -73.188492,67.350401 0.04057,-0.112184 0.102306,-0.102306 0.143227,-0.06138 h 0.142875 l 0.143229,0.06138 0.102304,0.102306 0.03034,0.112184 -0.03034,0.122766 -0.102304,0.102307 -0.143229,0.05115 h -0.142875 l -0.143227,-0.05115 -0.102306,-0.102307 -0.04057,-0.122766"
       style="fill:#000000;fill-opacity:1;fill-rule:evenodd;stroke:none;stroke-width:0.35277775"
       id="path5734"
       inkscape:connector-curvature="0" />
    <path
       d="m -73.188492,67.350401 0.04057,-0.112184 0.102306,-0.102306 0.143227,-0.06138 h 0.142875 l 0.143229,0.06138 0.102304,0.102306 0.03034,0.112184 -0.03034,0.122766 -0.102304,0.102307 -0.143229,0.05115 h -0.142875 l -0.143227,-0.05115 -0.102306,-0.102307 z"
       style="fill:none;stroke:#000000;stroke-width:0.04268611;stroke-linecap:round;stroke-linejoin:round;stroke-miterlimit:10;stroke-dasharray:none;stroke-opacity:1"
       id="path5736"
       inkscape:connector-curvature="0" />
    <text
       y="70.26329"
       x="-75.426865"
       style="font-variant:normal;font-weight:normal;font-size:2.04402971px;font-family:Arial;-inkscape-font-specification:Arial;writing-mode:lr-tb;fill:#000000;fill-opacity:1;fill-rule:nonzero;stroke:none;stroke-width:0.35277775"
       id="text5740">
      <tspan
         style="stroke-width:0.35277775"
         x="-75.426865 -74.064522 -72.929062 -71.793602 -70.772614 -70.205399 -69.525757 -68.390289 -67.823074"
         y="70.26329"
         sodipodi:role="line"
         id="tspan5738">Substrato</tspan>
    </text>
    <path
       d="m -56.263977,56.915587 v 8.2169 h -32.254825 v -8.2169 z"
       style="fill:#33cc33;fill-opacity:1;fill-rule:nonzero;stroke:none;stroke-width:0.35277775"
       id="path5742"
       inkscape:connector-curvature="0" />
    <path
       d="m -65.165973,55.934512 v 0.981075 h -14.349236 v -0.981075 z"
       style="fill:#ffffff;fill-opacity:1;fill-rule:nonzero;stroke:none;stroke-width:0.35277775"
       id="path5744"
       inkscape:connector-curvature="0" />
    <path
       d="m -79.514854,55.934512 v 0.981075 h 14.349235 v -0.981075 z"
       style="fill:none;stroke:#000000;stroke-width:0.17039166;stroke-linecap:round;stroke-linejoin:miter;stroke-miterlimit:8;stroke-dasharray:none;stroke-opacity:1"
       id="path5746"
       inkscape:connector-curvature="0" />
    <path
       d="m -65.165973,53.655568 v 2.278944 h -14.349236 v -2.278944 z"
       style="fill:#ff3300;fill-opacity:1;fill-rule:nonzero;stroke:none;stroke-width:0.35277775"
       id="path5748"
       inkscape:connector-curvature="0" />
    <text
       y="50.569008"
       x="-88.753998"
       style="font-variant:normal;font-weight:normal;font-size:2.04402971px;font-family:Arial;-inkscape-font-specification:Arial;writing-mode:lr-tb;fill:#000000;fill-opacity:1;fill-rule:nonzero;stroke:none;stroke-width:0.35277775"
       id="text5752">
      <tspan
         style="stroke-width:0.35277775"
         x="-88.753998 -87.286186 -86.601433 -85.472923 -84.344414 -83.215904 -82.087395 -80.958893"
         y="50.569008"
         sodipodi:role="line"
         id="tspan5750">Drenador</tspan>
    </text>
    <path
       d="m -88.518802,56.925817 0.04092,3.076575 6.32601,-0.03069 c 1.461558,-0.112536 1.93181,-0.337256 2.463094,-0.644173 0.531638,-0.296333 0.552098,-0.766233 0.694973,-1.175102 0.132998,-0.500945 0.16369,-0.981075 0.20461,-1.236839"
       style="fill:#339966;fill-opacity:1;fill-rule:evenodd;stroke:none;stroke-width:0.35277775"
       id="path5754"
       inkscape:connector-curvature="0" />
    <path
       d="m -56.3049,56.925817 -0.04092,3.076575 -6.326363,-0.03069 c -1.461558,-0.112536 -1.931458,-0.337256 -2.463096,-0.644173 -0.531283,-0.296333 -0.551743,-0.766233 -0.705202,-1.175102 -0.132643,-0.500945 -0.153106,-0.981075 -0.194027,-1.236839"
       style="fill:#339966;fill-opacity:1;fill-rule:evenodd;stroke:none;stroke-width:0.35277775"
       id="path5756"
       inkscape:connector-curvature="0" />
    <text
       y="50.50766"
       x="-77.021248"
       style="font-variant:normal;font-weight:normal;font-size:2.04402971px;font-family:Arial;-inkscape-font-specification:Arial;writing-mode:lr-tb;fill:#000000;fill-opacity:1;fill-rule:nonzero;stroke:none;stroke-width:0.35277775"
       id="text5760">
      <tspan
         style="stroke-width:0.35277775"
         x="-77.021248 -75.54464 -74.407341 -72.703842 -71.566551 -70.429253 -69.291954 -68.610474 -68.04142 -63.146374 -61.896652 -60.75935 -59.622059 -58.484753 -57.915699"
         y="50.50766"
         sodipodi:role="line"
         id="tspan5758">CompuertaFuente</tspan>
    </text>
    <path
       d="m -72.912619,65.010073 v 2.57563"
       style="fill:none;stroke:#000000;stroke-width:0.12770554;stroke-linecap:round;stroke-linejoin:round;stroke-miterlimit:10;stroke-dasharray:none;stroke-opacity:1"
       id="path5762"
       inkscape:connector-curvature="0" />
    <path
       d="m -81.150334,58.489681 h 14.604648 l 0.04092,0.02046 0.02045,0.04092 -0.02045,0.05115 -0.04092,0.02011 h -14.604648 l -0.0508,-0.02011 -0.02045,-0.05115 0.02045,-0.04092 z m 14.431082,-0.449791 1.021995,0.511175 -1.021995,0.510822"
       style="fill:#000000;fill-opacity:1;fill-rule:nonzero;stroke:none;stroke-width:0.35277775"
       id="path5764"
       inkscape:connector-curvature="0" />
  </g>
</svg>
